<?xml version="1.0" ?><!DOCTYPE svg  PUBLIC '-//W3C//DTD SVG 1.1//EN'  'http://www.w3.org/Graphics/SVG/1.1/DTD/svg11.dtd'><svg enable-background="new 0 0 128 128" height="128px" id="Layer_1" version="1.1" viewBox="0 0 128 128" width="128px" xml:space="preserve" xmlns="http://www.w3.org/2000/svg" xmlns:xlink="http://www.w3.org/1999/xlink"><g><g><path d="M64,64c-6.625,0-12,5.371-12,12c0,5.219,3.352,9.613,8,11.266V100c0,2.211,1.789,4,4,4s4-1.789,4-4V87.266    c4.648-1.652,8-6.047,8-11.266C76,69.371,70.625,64,64,64z" fill="#B0BEC5"/></g></g><path d="M108,40h-8v-8c0-17.672-14.328-32-32-32h-8C42.328,0,28,14.328,28,32v8h-8c-8.836,0-16,7.164-16,16v56  c0,8.84,7.164,16,16,16h88c8.836,0,16-7.16,16-16V56C124,47.164,116.836,40,108,40z M36,32C36,18.766,46.766,8,60,8h8  c13.234,0,24,10.766,24,24v8h-8v-8c0-8.824-7.18-16-16-16h-8c-8.82,0-16,7.176-16,16v8h-8V32z M76,40H52v-8c0-4.418,3.578-8,8-8h8  c4.422,0,8,3.582,8,8V40z M116,112c0,4.41-3.586,8-8,8H20c-4.414,0-8-3.59-8-8V56c0-4.41,3.586-8,8-8h88c4.414,0,8,3.59,8,8V112z" fill="#546E7A"/></svg>