<?xml version="1.0" ?><!DOCTYPE svg  PUBLIC '-//W3C//DTD SVG 1.1//EN'  'http://www.w3.org/Graphics/SVG/1.1/DTD/svg11.dtd'><svg enable-background="new 0 0 128 128" height="128px" id="Layer_1" version="1.1" viewBox="0 0 128 128" width="128px" xml:space="preserve" xmlns="http://www.w3.org/2000/svg" xmlns:xlink="http://www.w3.org/1999/xlink"><g><g><path d="M112,16H16C7.164,16,0,23.164,0,32v64c0,8.836,7.164,16,16,16h96c8.836,0,16-7.164,16-16V32    C128,23.164,120.836,16,112,16z M120,96c0,4.414-3.59,8-8,8H16c-4.412,0-8-3.586-8-8V32c0-4.414,3.588-8,8-8h96    c4.41,0,8,3.586,8,8V96z" fill="#B0BEC5"/></g></g><path d="M104,64c0,13.254-10.746,24-24,24S56,77.254,56,64s10.746-24,24-24S104,50.746,104,64z" fill="#FFA000"/><path d="M72,64c0,13.254-10.746,24-24,24S24,77.254,24,64s10.746-24,24-24S72,50.746,72,64z" fill="#D32F2F"/></svg>