<?xml version="1.0" ?><!DOCTYPE svg  PUBLIC '-//W3C//DTD SVG 1.1//EN'  'http://www.w3.org/Graphics/SVG/1.1/DTD/svg11.dtd'><svg enable-background="new 0 0 128 128" height="128px" id="Layer_1" version="1.1" viewBox="0 0 128 128" width="128px" xml:space="preserve" xmlns="http://www.w3.org/2000/svg" xmlns:xlink="http://www.w3.org/1999/xlink"><path d="M51.5,59.031L48,56.438V96h8V59.031H51.5z" fill="#546E7A"/><path d="M76,59.031h-4V96h8V56.594L76,59.031z" fill="#546E7A"/><path clip-rule="evenodd" d="M120,128H8c-4.422,0-8-3.578-8-8v-16c0-4.422,3.578-8,8-8h8v8H8v16  h112v-16h-8v-8h8c4.422,0,8,3.578,8,8v16C128,124.422,124.422,128,120,128z M96,96v8H32v-8H96z" fill="#546E7A" fill-rule="evenodd"/><g><g><path clip-rule="evenodd" d="M56,8h-8v8h8V8z M72,8h-8v8h8V8z M64,24v-8h-8v8H64z M48,16h-8v8    h8V16z M80,24v-8h-8v8H80z M84.875,10.75L80,8v8h8L84.875,10.75z M88,32v-8h-8v8H88z M72,32v-8h-8v8H72z M48,24v8h8v-8H48z     M36,25.5L34.5,32H40v-8L36,25.5z M40,32v8h8v-8H40z M56,32v8h8v-8H56z M72,40h8v-8h-8V40z M88,32v8l4.875-1l0.75-7H88z M80,48h8    v-8h-8V48z M64,40v8h8v-8H64z M48,40v8h8v-8H48z M42.75,52L48,56v-8h-8L42.75,52z M56,56h8v-8h-8V56z M72,56h8v-8h-8V56z" fill="#EF9A9A" fill-rule="evenodd"/></g></g><path d="M16,104v-8h16v8h8v-8c0-4.422-3.578-8-8-8H16c-4.422,0-8,3.578-8,8v8H16z" fill="#F44336"/><path clip-rule="evenodd" d="M8,104h32v8H8V104z" fill="#F44336" fill-rule="evenodd"/><path d="M96,104v-8h16v8h8v-8c0-4.422-3.578-8-8-8H96c-4.422,0-8,3.578-8,8v8H96z" fill="#F44336"/><path clip-rule="evenodd" d="M88,104h32v8H88V104z" fill="#F44336" fill-rule="evenodd"/><path d="M64,8c13.234,0,24,10.766,24,24S77.234,56,64,56S40,45.234,40,32S50.766,8,64,8 M64,0  C46.328,0,32,14.328,32,32s14.328,32,32,32s32-14.328,32-32S81.672,0,64,0L64,0z" fill="#F44336"/></svg>