<?xml version="1.0" ?><!DOCTYPE svg  PUBLIC '-//W3C//DTD SVG 1.1//EN'  'http://www.w3.org/Graphics/SVG/1.1/DTD/svg11.dtd'><svg enable-background="new 0 0 128 128" id="Слой_1" version="1.1" viewBox="0 0 128 128" xml:space="preserve" xmlns="http://www.w3.org/2000/svg" xmlns:xlink="http://www.w3.org/1999/xlink"><circle cx="64" cy="64" fill="#EEEBA8" r="62"/><g><g><path d="M126,64c0-8.9-1.9-17.4-5.3-25H49c-8.3,0-15,6.7-15,15v64.3c8.9,4.9,19.1,7.7,30,7.7    C98.2,126,126,98.2,126,64z" fill="#65C1C2"/></g><g opacity="0.8"><path d="M92.3,119.1c-1.8,0.3-3.4,1.1-4.8,2.2C89.2,120.7,90.8,119.9,92.3,119.1z" fill="#E7E8E3"/><path d="M76,123.3c1-1.6,1.5-3.4,1.5-5.2c0-5.5-4.5-10-10-10c-1.9,0-3.7,0.5-5.2,1.5c-1.5-2.6-2.6-5.4-3.4-8.3    c4.5-1.1,7.7-5.1,7.7-9.7s-3.2-8.7-7.7-9.7c0.8-2.9,1.9-5.7,3.4-8.3c1.6,1,3.4,1.5,5.2,1.5c5.5,0,10-4.5,10-10    c0-1.9-0.5-3.7-1.5-5.2c2.6-1.5,5.4-2.6,8.3-3.4c1.1,4.5,5.1,7.7,9.7,7.7s8.7-3.2,9.7-7.7c2.9,0.8,5.7,1.9,8.3,3.4    c-1,1.6-1.5,3.4-1.5,5.2c0,5.5,4.5,10,10,10c1.7,0,3.3-0.4,4.7-1.2c0.1-0.9,0.2-1.7,0.3-2.6l-0.1,0.1c-1.4,1.1-3.1,1.7-4.9,1.7    c-4.4,0-8-3.6-8-8c0-1.8,0.6-3.5,1.7-4.9l0.7-0.9l-1-0.6c-3.3-2-7-3.5-10.8-4.5l-1.1-0.3l-0.1,1.1c-0.5,4-3.9,7-7.9,7    s-7.5-3-7.9-7l-0.1-1.1l-1.1,0.3C81,55,77.4,56.5,74,58.6l-1,0.6l0.7,0.9c1.1,1.4,1.7,3.1,1.7,4.9c0,4.4-3.6,8-8,8    c-1.8,0-3.5-0.6-4.9-1.7l-0.9-0.7l-0.6,1c-2,3.3-3.5,7-4.5,10.8l-0.3,1.1l1.1,0.1c4,0.5,7,3.9,7,7.9s-3,7.5-7,7.9l-1.1,0.1    l0.3,1.1c0.9,3.8,2.4,7.5,4.5,10.8l0.6,1l0.9-0.7c1.4-1.1,3.1-1.7,4.9-1.7c4.4,0,8,3.6,8,8c0,1.8-0.6,3.5-1.7,4.9l-0.7,0.9l1,0.6    c0.3,0.2,0.7,0.4,1,0.6c1-0.2,2-0.4,3.1-0.6C77.4,124,76.7,123.7,76,123.3z" fill="#E7E8E3"/><path d="M94,75.5c-8.8,0-16,7.2-16,16s7.2,16,16,16s16-7.2,16-16S102.8,75.5,94,75.5z M94,105.5    c-7.7,0-14-6.3-14-14s6.3-14,14-14s14,6.3,14,14S101.7,105.5,94,105.5z" fill="#E7E8E3"/></g><g><path d="M35,54c0-7.7,6.3-14,14-14h72.2c-0.3-0.7-0.6-1.3-0.9-2H49c-8.8,0-16,7.2-16,16v63.7    c0.7,0.4,1.3,0.8,2,1.1V54z" fill="#2D2E2D"/></g><g opacity="0.6"><path d="M55.1,123v2.3c0.9,0.1,1.8,0.2,2.8,0.3V123h12.2v2.7c0.9-0.1,1.9-0.2,2.8-0.3V123H83    c2.6-0.8,5.2-1.9,7.7-3h-2.8v-12h12.2v6.4c0.9-0.7,1.9-1.4,2.8-2.1V108h4.8c1-1,1.9-2,2.9-3h-7.6V93h12.2v6.1    c1-1.4,1.9-2.9,2.8-4.4V93h0.9c0.5-1,1-2,1.5-3h-2.4V78h6.5c0.2-1,0.4-2,0.6-3h-7.1V63h8.1c0-1-0.1-2-0.1-3h-8V48h6    c-0.3-1-0.6-2-0.9-3H40v3h0.1v12H40v3h0.1v12H40v3h0.1v12H40v3h0.1v12H40v3h0.1v12H40v1.2c1.6,0.7,3.3,1.3,5,1.8H55.1z M102.9,48    h12.2v12h-12.2V48z M102.9,63h12.2v12h-12.2V63z M102.9,78h12.2v12h-12.2V78z M87.9,48h12.2v12H87.9V48z M87.9,63h12.2v12H87.9V63    z M87.9,78h12.2v12H87.9V78z M87.9,93h12.2v12H87.9V93z M72.9,48h12.2v12H72.9V48z M72.9,63h12.2v12H72.9V63z M72.9,78h12.2v12    H72.9V78z M72.9,93h12.2v12H72.9V93z M72.9,108h12.2v12H72.9V108z M57.9,48h12.2v12H57.9V48z M57.9,63h12.2v12H57.9V63z M57.9,78    h12.2v12H57.9V78z M57.9,93h12.2v12H57.9V93z M57.9,108h12.2v12H57.9V108z M42.9,48h12.2v12H42.9V48z M42.9,63h12.2v12H42.9V63z     M42.9,78h12.2v12H42.9V78z M42.9,93h12.2v12H42.9V93z M42.9,108h12.2v12H42.9V108z" fill="#E7E8E3"/></g><g><path d="M49,69c-8.3,0-15-6.7-15-15v64.3c8.9,4.9,19.1,7.7,30,7.7V54C64,62.3,57.3,69,49,69z" fill="#E7E8E3"/></g><g><path d="M64,53c-0.6,0-1,0.4-1,1c0,7.7-6.3,14-14,14s-14-6.3-14-14c0-0.6-0.4-1-1-1s-1,0.4-1,1v63.7    c0.7,0.4,1.3,0.8,2,1.1V61.7c2.7,4.9,8,8.3,14,8.3s11.3-3.3,14-8.3V126c0.3,0,0.7,0,1,0s0.7,0,1,0V54C65,53.4,64.6,53,64,53z" fill="#2D2E2D"/></g></g></svg>