<?xml version="1.0" ?><!DOCTYPE svg  PUBLIC '-//W3C//DTD SVG 1.1//EN'  'http://www.w3.org/Graphics/SVG/1.1/DTD/svg11.dtd'><svg enable-background="new 0 0 128 128" id="Слой_1" version="1.1" viewBox="0 0 128 128" xml:space="preserve" xmlns="http://www.w3.org/2000/svg" xmlns:xlink="http://www.w3.org/1999/xlink"><path d="M2.1,68c2.1,32.4,29,58,61.9,58c34.2,0,62-27.8,62-62c0-30.5-22-55.8-51-61C71.4,2.3,2,66.7,2.1,68z" fill="#EEEBA8"/><g><g><path d="M76.2,79V3.2C72.3,2.4,68.2,2,64,2C50.3,2,2,43.5,2,64c0,10.9,2.8,21.1,7.7,30h51.5    C69.5,94,76.2,87.3,76.2,79z" fill="#767A78"/></g><g opacity="0.2"><g><path d="M76.2,79v-6c0,8.3-6.7,15-15,15H6.8c0.9,2.1,1.8,4.1,2.9,6h51.5C69.5,94,76.2,87.3,76.2,79z" fill="#040606"/></g></g><g><path d="M77.2,79V3.4c-0.7-0.1-1.3-0.3-2-0.4v76c0,7.7-6.3,14-14,14h-52c0.4,0.7,0.7,1.3,1.1,2h50.9    C70,95,77.2,87.8,77.2,79z" fill="#2D2E2D"/></g><g><path d="M58.8,66.2c6.6,0,12-5.4,12-12V2.4C68.5,2.1,66.3,2,64,2C29.8,2,2,29.8,2,64c0,0.7,0,1.4,0.1,2.1    c0.5,0.1,1.1,0.1,1.6,0.1H58.8z" fill="#E7E8E3"/></g><g><path d="M58.8,67.2c7.2,0,13-5.8,13-13V2.5c-0.7-0.1-1.3-0.2-2-0.2v52c0,6.1-4.9,11-11,11H3.7    c-0.6,0-1.1-0.1-1.6-0.1c0,0.7,0,1.4,0.1,2c0.5,0.1,1,0.1,1.6,0.1H58.8z" fill="#2D2E2D"/></g><g><circle cx="31.2" cy="80.1" fill="#E7E8E3" r="6"/></g><g><path d="M31.2,73.1c-3.9,0-7,3.1-7,7s3.1,7,7,7s7-3.1,7-7S35.1,73.1,31.2,73.1z M31.2,85.1c-2.8,0-5-2.2-5-5    s2.2-5,5-5s5,2.2,5,5S34,85.1,31.2,85.1z" fill="#2D2E2D"/></g><g><path d="M18.5,84.2V76c0-0.8-0.7-1.5-1.5-1.5H2.9c0.7,3.9,1.7,7.6,3,11.2h11C17.8,85.7,18.5,85.1,18.5,84.2z" fill="#E7E8E3"/></g><g><path d="M7.2,73.5c-0.6,0-1,0.4-1,1v11.2c0,0.6,0.4,1,1,1s1-0.4,1-1V74.5C8.2,73.9,7.8,73.5,7.2,73.5z" fill="#2D2E2D"/></g><g><path d="M65,74.5H45.5c-0.8,0-1.5,0.7-1.5,1.5v8.2c0,0.8,0.7,1.5,1.5,1.5H65c0.8,0,1.5-0.7,1.5-1.5V76    C66.5,75.2,65.8,74.5,65,74.5z" fill="#E7E8E3"/></g><g><path d="M19.5,84.2V76c0-1.4-1.1-2.5-2.5-2.5H2.7c0.1,0.7,0.2,1.3,0.4,2H17c0.3,0,0.5,0.2,0.5,0.5v8.2    c0,0.3-0.2,0.5-0.5,0.5H5.6c0.2,0.7,0.5,1.3,0.8,2H17C18.3,86.7,19.5,85.6,19.5,84.2z" fill="#2D2E2D"/></g><g><path d="M65,73.5H45.5c-1.4,0-2.5,1.1-2.5,2.5v8.2c0,1.4,1.1,2.5,2.5,2.5H65c1.4,0,2.5-1.1,2.5-2.5V76    C67.5,74.6,66.3,73.5,65,73.5z M65.5,84.2c0,0.3-0.2,0.5-0.5,0.5H45.5c-0.3,0-0.5-0.2-0.5-0.5V76c0-0.3,0.2-0.5,0.5-0.5H65    c0.3,0,0.5,0.2,0.5,0.5V84.2z" fill="#2D2E2D"/></g><g><path d="M55.2,73.5c-0.6,0-1,0.4-1,1v11.2c0,0.6,0.4,1,1,1s1-0.4,1-1V74.5C56.2,73.9,55.8,73.5,55.2,73.5z" fill="#2D2E2D"/></g></g><g><path d="M88.5,68.2V71c0.4,0.6,1,0.6,1.4,0v-2.8l3-4.8V9.2c-2.4-1.3-4.9-2.4-7.5-3.4v57.7L88.5,68.2z" fill="#767A78"/></g><g><path d="M84.6,64l2.9,4.5V71c0,0.2,0,0.4,0.1,0.5c0.4,0.6,0.9,1,1.6,1c0.6,0,1.2-0.4,1.6-1c0.1-0.2,0.1-0.3,0.1-0.5   v-2.5l2.9-4.5c0.1-0.2,0.2-0.3,0.2-0.5V9.7c-0.7-0.4-1.3-0.7-2-1v54.5l-2.8,4.3l-2.8-4.3v-57c-0.7-0.3-1.3-0.5-2-0.7v58   C84.5,63.7,84.5,63.9,84.6,64z" fill="#2D2E2D"/></g><g><path d="M93,62.5h-7.5c-0.6,0-1,0.4-1,1s0.4,1,1,1H93c0.6,0,1-0.4,1-1S93.5,62.5,93,62.5z" fill="#2D2E2D"/></g></svg>