<?xml version="1.0" ?><!DOCTYPE svg  PUBLIC '-//W3C//DTD SVG 1.1//EN'  'http://www.w3.org/Graphics/SVG/1.1/DTD/svg11.dtd'><svg enable-background="new 0 0 128 128" id="Слой_1" version="1.1" viewBox="0 0 128 128" xml:space="preserve" xmlns="http://www.w3.org/2000/svg" xmlns:xlink="http://www.w3.org/1999/xlink"><path d="M64,2c-19.9,0-37.7,9.4-49,24c-8.1,10.5-8.1,65.5,0,76c11.3,14.6,29.1,24,49,24c34.2,0,62-27.8,62-62  S98.2,2,64,2z" fill="#F6F3E0"/><g><g><path d="M54.1,101.5c0.8,0.8,1.9,1.2,3.1,1.2h16.8c8.3,0,15.1-6.7,15.1-15.1V40.4c0-8.3-6.7-15.1-15.1-15.1H57.1    c-1.1,0-2.3,0.4-3.1,1.2c-5.2,5-12.3,8.1-20.1,8.1c-7.6,0-14.5-2.9-19.6-7.7C10.9,31.5,8.1,36.6,6,42c-2.6,6.8-4,24.6-3.9,26    c0.8,12.4,5.2,23.8,12.2,33.1c5.2-4.8,12.1-7.7,19.6-7.7C41.8,93.5,48.9,96.5,54.1,101.5z" fill="#9F514F"/></g><g opacity="0.4"><path d="M76.3,66v-4c0-9.6-7.8-17.3-17.3-17.3H5.1C3.1,50.7,2,57.2,2,64s1.1,13.3,3.1,19.4H59    C68.6,83.4,76.3,75.6,76.3,66z" fill="#04080A"/></g><g><path d="M53.4,102.2c1,0.9,2.3,1.5,3.8,1.5h16.8c8.9,0,16.1-7.2,16.1-16.1V40.4c0-8.9-7.2-16.1-16.1-16.1H57.1    c-1.4,0-2.8,0.5-3.8,1.5c-5.2,5-12.1,7.8-19.4,7.8c-7.1,0-13.8-2.7-19-7.5c-0.4,0.5-0.8,1.1-1.2,1.6c5.5,5.1,12.7,7.9,20.2,7.9    c7.8,0,15.1-3,20.8-8.3c0.6-0.6,1.5-0.9,2.4-0.9h16.8c7.8,0,14.1,6.3,14.1,14.1v47.3c0,7.8-6.3,14.1-14.1,14.1H57.1    c-0.9,0-1.8-0.3-2.4-0.9c-5.6-5.4-13-8.3-20.8-8.3c-7.5,0-14.7,2.8-20.2,7.9c0.4,0.5,0.8,1.1,1.2,1.6c5.2-4.8,11.9-7.5,19-7.5    C41.3,94.5,48.1,97.2,53.4,102.2z" fill="#2D2E2D"/></g><g><path d="M77.3,64c0-11.8-7.9-20.4-18.8-20.4H5.4c-0.2,0.7-0.5,1.3-0.7,2h53.7c9.7,0,16.8,7.7,16.8,18.4    s-7.1,18.4-16.8,18.4H4.8c0.2,0.7,0.4,1.3,0.7,2h53.1C69.4,84.4,77.3,75.8,77.3,64z" fill="#282928"/></g><g><path d="M76.3,64c0-10.7-7.1-19.4-17.8-19.4H5.1C3.1,50.7,2,57.2,2,64c0,1.7,0.1,3.5,0.2,5.2h73.4    C76.1,67.5,76.3,65.8,76.3,64z" fill="#CCD1CD"/></g><g><path d="M76.3,64H2c0,1.7,0.1,3.5,0.2,5.2h73.4C76.1,67.5,76.3,65.8,76.3,64z" fill="#FFFFFF"/></g><g><circle cx="32.7" cy="54.9" fill="#858B89" r="6.5"/><path d="M32.7,47.4c-4.1,0-7.5,3.3-7.5,7.5s3.3,7.5,7.5,7.5s7.5-3.3,7.5-7.5S36.8,47.4,32.7,47.4z M32.7,60.3    c-3,0-5.5-2.4-5.5-5.5s2.4-5.5,5.5-5.5c3,0,5.5,2.4,5.5,5.5S35.7,60.3,32.7,60.3z" fill="#282928"/></g><g><path d="M32.7,47.4c-4.1,0-7.5,3.3-7.5,7.5s3.3,7.5,7.5,7.5s7.5-3.3,7.5-7.5S36.8,47.4,32.7,47.4z M32.7,60.3    c-3,0-5.5-2.4-5.5-5.5s2.4-5.5,5.5-5.5c3,0,5.5,2.4,5.5,5.5S35.7,60.3,32.7,60.3z" fill="#282928"/></g><g><path d="M76.6,69.4c0.5-1.8,0.8-3.6,0.8-5.4c0-11.8-7.9-20.4-18.8-20.4H5.4c-0.2,0.7-0.5,1.3-0.7,2h53.7    c9.7,0,16.8,7.7,16.8,18.4c0,1.4-0.2,2.8-0.5,4.2H2.2c0,0.7,0.1,1.3,0.2,2h74.1L76.6,69.4z" fill="#282928"/></g></g></svg>