<?xml version="1.0" ?><!DOCTYPE svg  PUBLIC '-//W3C//DTD SVG 1.1//EN'  'http://www.w3.org/Graphics/SVG/1.1/DTD/svg11.dtd'><svg enable-background="new 0 0 128 128" id="Слой_1" version="1.1" viewBox="0 0 128 128" xml:space="preserve" xmlns="http://www.w3.org/2000/svg" xmlns:xlink="http://www.w3.org/1999/xlink"><g><circle cx="64" cy="64" fill="#EEEBA8" r="62"/><g><g><path d="M84.7,65.4l-4.2-5.1c-1.1-1.3-1.7-3-1.7-4.7v-4.7H49.2v4.7c0,1.7-0.6,3.4-1.7,4.7l-4.2,5.1     c-1,1.2-1.6,2.6-1.7,4.1l-4.3,50.5c8.1,3.9,17.2,6.1,26.8,6.1s18.7-2.2,26.8-6.1l-4.3-50.5C86.3,68,85.7,66.5,84.7,65.4z" fill="#A3CA55"/></g><g><path d="M40.2,84.3l-3,35.6c8.1,3.9,17.2,6.1,26.8,6.1s18.7-2.2,26.8-6.1l-3-35.6H40.2z" fill="#52544F"/></g><g><path d="M87.8,83.3H40.2c-0.6,0-1,0.4-1,1s0.4,1,1,1h47.6c0.6,0,1-0.4,1-1S88.3,83.3,87.8,83.3z" fill="#2D2E2D"/></g><g><path d="M85.5,64.8l-4.2-5.1c-1-1.1-1.5-2.6-1.5-4.1v-4.7c0-0.6-0.4-1-1-1H49.2c-0.6,0-1,0.4-1,1v4.7     c0,1.5-0.5,3-1.5,4.1l-4.2,5.1c-1.1,1.3-1.8,2.9-1.9,4.6l-4.3,50.1c0.6,0.3,1.3,0.6,1.9,0.9l4.4-50.8c0.1-1.3,0.6-2.5,1.5-3.5     l4.2-5.1c1.3-1.5,1.9-3.4,1.9-5.4v-3.7h27.6v3.7c0,2,0.7,3.9,1.9,5.4L84,66c0.8,1,1.3,2.2,1.5,3.5l4.4,50.8     c0.6-0.3,1.3-0.6,1.9-0.9l-4.3-50.1C87.3,67.7,86.6,66.1,85.5,64.8z" fill="#2D2E2D"/></g><g><path d="M80.5,60.3c-1.1-1.3-1.7-3-1.7-4.7v-4.7H49.2v4.7c0,1.7-0.6,3.4-1.7,4.7l-4.2,5.1c-1,1.2-1.6,2.6-1.7,4.1     h44.9c-0.1-1.5-0.7-2.9-1.7-4.1L80.5,60.3z" fill="#E7E8E3"/></g><g opacity="0.1"><g><path d="M84.7,65.4l-4.2-5.1c-1.1-1.3-1.7-3-1.7-4.7v-4.7h-8.9v4.7c0,1.7,0.6,3.4,1.7,4.7l4.2,5.1      c1,1.2,1.6,2.6,1.7,4.1l5.6,53.5c2.6-0.9,5.2-1.9,7.7-3.1l-4.3-50.5C86.3,68,85.7,66.5,84.7,65.4z" fill="#040606"/></g></g><g><path d="M81.3,59.7c-1-1.1-1.5-2.6-1.5-4.1v-4.7c0-0.6-0.4-1-1-1H49.2c-0.6,0-1,0.4-1,1v4.7c0,1.5-0.5,3-1.5,4.1     l-4.2,5.1c-1.1,1.3-1.8,2.9-1.9,4.6c0,0.3,0.1,0.6,0.3,0.8s0.5,0.3,0.7,0.3h44.9c0.3,0,0.5-0.1,0.7-0.3s0.3-0.5,0.3-0.8     c-0.2-1.7-0.8-3.3-1.9-4.6L81.3,59.7z M42.8,68.5c0.2-0.9,0.7-1.7,1.3-2.4l4.2-5.1c1.3-1.5,1.9-3.4,1.9-5.4v-3.7h27.6v3.7     c0,2,0.7,3.9,1.9,5.4L84,66c0.6,0.7,1,1.5,1.3,2.4H42.8z" fill="#2D2E2D"/></g><g opacity="0.1"><rect fill="#040606" height="5.9" width="29.6" x="49.2" y="50.9"/></g><g><rect fill="#CCD1CD" height="10.4" width="44.4" x="41.8" y="43.5"/></g><g opacity="0.1"><g><rect fill="#040606" height="10.4" width="7.4" x="78.8" y="43.5"/></g></g><g><path d="M86.2,42.5H41.8c-0.6,0-1,0.4-1,1v10.4c0,0.6,0.4,1,1,1h44.4c0.6,0,1-0.4,1-1V43.5     C87.2,42.9,86.8,42.5,86.2,42.5z M85.2,52.8H42.8v-8.4h42.4V52.8z" fill="#2D2E2D"/></g><g><path d="M49.2,42.5c-0.6,0-1,0.4-1,1v10.4c0,0.6,0.4,1,1,1s1-0.4,1-1V43.5C50.2,42.9,49.7,42.5,49.2,42.5z" fill="#2D2E2D"/></g><g><path d="M56.6,42.5c-0.6,0-1,0.4-1,1v10.4c0,0.6,0.4,1,1,1s1-0.4,1-1V43.5C57.6,42.9,57.1,42.5,56.6,42.5z" fill="#2D2E2D"/></g><g><path d="M64,42.5c-0.6,0-1,0.4-1,1v10.4c0,0.6,0.4,1,1,1s1-0.4,1-1V43.5C65,42.9,64.6,42.5,64,42.5z" fill="#2D2E2D"/></g><g><path d="M71.4,42.5c-0.6,0-1,0.4-1,1v10.4c0,0.6,0.4,1,1,1s1-0.4,1-1V43.5C72.4,42.9,72,42.5,71.4,42.5z" fill="#2D2E2D"/></g><g><path d="M78.8,42.5c-0.6,0-1,0.4-1,1v10.4c0,0.6,0.4,1,1,1s1-0.4,1-1V43.5C79.8,42.9,79.4,42.5,78.8,42.5z" fill="#2D2E2D"/></g></g></g></svg>