<?xml version="1.0" ?><!DOCTYPE svg  PUBLIC '-//W3C//DTD SVG 1.1//EN'  'http://www.w3.org/Graphics/SVG/1.1/DTD/svg11.dtd'><svg enable-background="new 0 0 128 128" id="Слой_1" version="1.1" viewBox="0 0 128 128" xml:space="preserve" xmlns="http://www.w3.org/2000/svg" xmlns:xlink="http://www.w3.org/1999/xlink"><g><circle cx="64" cy="64" fill="#CBE8E1" r="62"/><g><g><g><path d="M89.8,94.9l-75.3,0c-1.4,0-2.7,0.2-4,0.5c2.7,4.6,20.9,21.9,27.5,25c7.9,3.7,16.7,5.7,26,5.7      c16.5,0,31.6-6.5,42.7-17.1C105.2,100.9,98.2,94.9,89.8,94.9z" fill="#52544F"/></g></g><g opacity="0.1"><path d="M106.8,109.4c0-0.2-0.1-0.3-0.1-0.5c-0.2,0.2-0.5,0.5-0.7,0.7L106.8,109.4z" fill="#040606"/><path d="M89.8,94.9l-75.3,0c-1.4,0-2.7,0.2-4,0.5c8.7,14.9,23.5,25.8,40.9,29.4l54.6-15.1     c0.2-0.2,0.5-0.4,0.7-0.7C105.2,101,98.2,94.9,89.8,94.9z" fill="#040606"/></g><g><path d="M16,95.9l73.7,0c4.3,0,8.4,1.7,11.5,4.8c2.5,2.5,4.1,5.7,4.6,9.1c0.6-0.5,1.2-1.1,1.7-1.7     c-0.7-3.3-2.4-6.4-4.9-8.9c-3.4-3.4-8-5.3-12.9-5.4l-73.7,0c-2,0-4,0.3-5.8,1c0.3,0.6,0.7,1.2,1,1.8C12.8,96.1,14.4,95.9,16,95.9     z" fill="#2D2E2D"/></g><g><g><path d="M103.7,87.5c-2.5-9.2-12-14.6-21.2-12L10.5,95.3c2.7,4.6,22.7,23.1,30.6,26.3l50.6-12.9      C100.8,106.2,106.2,96.7,103.7,87.5z" fill="#9F514F"/></g></g><g opacity="0.1"><path d="M82.4,75.5L73.1,78L10.5,95.3c7,11.9,17.8,21.3,30.8,26.4l61.6-36.3C99.6,77.5,90.9,73.1,82.4,75.5z" fill="#040606"/></g><g><path d="M102.9,101.1c2.4-4.2,3-9.2,1.7-13.9c-2.2-7.9-9.4-13.4-17.6-13.4c-1.6,0-3.3,0.2-4.9,0.7l-71,20.1     c-0.3,0.1-0.6,0.2-0.9,0.3c0.3,0.6,0.7,1.2,1,1.8c0.1,0,0.3-0.1,0.4-0.1l71-20.1c1.4-0.4,2.9-0.6,4.3-0.6     c7.3,0,13.7,4.9,15.7,11.9c1.2,4.2,0.6,8.6-1.5,12.3c-2.1,3.8-5.6,6.5-9.8,7.7l-50.2,13.9c1.1,0.4,2.1,0.8,3.2,1.2l47.5-13.1     C96.6,108.4,100.5,105.3,102.9,101.1z" fill="#2D2E2D"/></g><g><g><path d="M94.2,65L94.2,65c-4.8-8.2-15.4-10.9-23.6-6.1L10.1,94.6c2.8,4.9,20.1,21.8,26,24.7l52-30.7      C96.3,83.8,99,73.2,94.2,65z" fill="#E3725D"/></g></g><g opacity="0.1"><path d="M93.4,63.9c-5.1-7.3-15.1-9.6-22.9-5L10.1,94.6c6,10.6,15.1,19.2,26,24.7l4.9-2.9L93.4,63.9z" fill="#040606"/></g><g><path d="M97,78.4c1.2-4.7,0.5-9.6-2-13.8c-3.3-5.5-9.3-9-15.7-9c-3.2,0-6.5,0.9-9.3,2.5L10,94.4     c0.3,0.6,0.7,1.2,1,1.7L71,59.8c2.5-1.5,5.4-2.3,8.2-2.3c5.7,0,11.1,3.1,14,8c4.6,7.7,2,17.7-5.7,22.3l-52.5,31     c0.7,0.4,1.4,0.7,2.1,1.1l51.4-30.4C92.8,87.1,95.8,83.1,97,78.4z" fill="#2D2E2D"/></g><g><g><path d="M79.9,46.5L79.9,46.5c-6.7-6.7-17.7-6.7-24.4,0L9.1,92.9c2.9,5.5,19.1,22.1,23.9,24.9l46.8-46.9      C86.6,64.1,86.6,53.2,79.9,46.5z" fill="#A3CA55"/></g></g><g opacity="0.1"><path d="M78.5,45.2c-6.8-5.5-16.7-5.1-23,1.2L9.1,92.9c5.5,10.4,13.8,19,23.9,24.9l8.4-8.4L78.5,45.2z" fill="#040606"/></g><g><path d="M85.9,58.7c0-4.9-1.9-9.5-5.4-12.9c-3.4-3.4-8-5.3-12.9-5.3c-4.9,0-9.5,1.9-12.9,5.4L9.1,92.8     c0.3,0.6,0.7,1.2,1,1.8l46-47.5c3.1-3.1,7.2-4.8,11.5-4.8c4.3,0,8.4,1.7,11.5,4.8c3.1,3.1,4.8,7.1,4.8,11.5     c0,4.3-1.7,8.4-4.8,11.5l-47,47.1c0.6,0.4,1.2,0.7,1.8,1l46.6-46.7C84,68.1,85.9,63.5,85.9,58.7z" fill="#2D2E2D"/></g><g><g><path d="M60.8,32L60.8,32c-8.2-4.8-18.8-1.9-23.6,6.3L7.6,89.6c3.1,6.7,19.8,24.7,24.1,27.3l35.4-61.3      C71.8,47.4,69,36.8,60.8,32z" fill="#65C1C2"/></g></g><g opacity="0.1"><path d="M58.8,31.1c-7.9-3.3-17.2-0.4-21.6,7.3L7.6,89.6c5.1,11.3,13.6,20.8,24.1,27.3l7.9-13.6L58.8,31.1z" fill="#040606"/></g><g><path d="M61.3,31.2c-2.8-1.6-5.9-2.5-9.1-2.5c-6.5,0-12.6,3.5-15.8,9.1L7.6,89.7c0.3,0.7,0.7,1.5,1.1,2.2     l29.4-53.1c2.9-5,8.3-8.1,14.1-8.1c2.8,0,5.6,0.8,8.1,2.2c7.8,4.5,10.4,14.4,5.9,22.2l-35.4,61.3c0.6,0.4,1.1,0.7,1.7,1     l35.4-61.3C73,47.4,70,36.2,61.3,31.2z" fill="#2D2E2D"/></g><g><g><path d="M50.6,43.7c2.5-9.2-3-18.7-12.2-21.1s-18.7,3-21.1,12.2L4.6,81.9c1.9,6.1,19.2,30.1,26.5,34.6      c0,0,0-0.1,0-0.1L50.6,43.7z" fill="#EBA15B"/></g></g><g><path d="M51.5,44c1.3-4.7,0.6-9.6-1.8-13.8c-2.4-4.2-6.4-7.2-11.1-8.5c-1.5-0.4-3.1-0.6-4.7-0.6     c-8.2,0-15.5,5.6-17.6,13.6L4.6,81.9c0.4,1.2,0.8,2.4,1.2,3.6l12.4-50.4C20.1,28,26.6,23,33.9,23c1.4,0,2.8,0.2,4.2,0.6     c4.2,1.1,7.7,3.8,9.9,7.6s2.8,8.1,1.6,12.3L30.2,116c0.6,0.4,1.2,0.8,1.7,1.1c0-0.1,0.1-0.3,0.1-0.4L51.5,44z" fill="#2D2E2D"/></g><g><g opacity="0.1"><path d="M36.4,96.7V22.2c-8.6-1.3-16.9,4-19.2,12.6L4.6,81.9c4.4,14.5,13.9,26.7,26.5,34.6c0,0,0-0.1,0-0.1      L36.4,96.7z" fill="#040606"/></g><g><path d="M31.7,36.7c0-7.6-4.9-14-11.7-16.3C8.9,31.5,2,47,2,64c0,22.1,11.6,41.6,29.1,52.5      c0.4-1.5,0.6-3,0.6-4.6V36.7z" fill="#F9E373"/></g><g><path d="M31.7,97.8H12c4.9,7.5,11.4,13.9,19,18.7c0.4-1.5,0.6-3,0.6-4.6V97.8z" fill="#E7E8E3"/></g><g><path d="M32.7,97.8c0-0.6-0.4-1-1-1H11.4c0.4,0.7,0.8,1.3,1.3,2h19C32.3,98.8,32.7,98.4,32.7,97.8z" fill="#2D2E2D"/></g><g><path d="M32.7,36.7c0-7.8-5-14.5-11.9-17.1c-0.5,0.5-1,1-1.5,1.6c6.6,2,11.5,8.2,11.5,15.5v75.3      c0,1.4-0.2,2.7-0.5,4c0.6,0.4,1.2,0.8,1.8,1.1c0.5-1.6,0.8-3.4,0.8-5.2V36.7z" fill="#2D2E2D"/></g></g></g></g></svg>