<?xml version="1.0" ?><!DOCTYPE svg  PUBLIC '-//W3C//DTD SVG 1.1//EN'  'http://www.w3.org/Graphics/SVG/1.1/DTD/svg11.dtd'><svg enable-background="new 0 0 128 128" id="Слой_1" version="1.1" viewBox="0 0 128 128" xml:space="preserve" xmlns="http://www.w3.org/2000/svg" xmlns:xlink="http://www.w3.org/1999/xlink"><g><g><circle cx="64" cy="64" fill="#CBE8E1" r="62"/><g><path d="M107.8,107.8c-0.6,0.6-1.3,1.2-1.9,1.8C106.6,109.1,107.2,108.5,107.8,107.8z" fill="#F9E373"/><path d="M103.2,112.1c-0.6,0.5-1.2,0.9-1.8,1.4C102,113,102.6,112.5,103.2,112.1z" fill="#F9E373"/><path d="M105.3,110.2c-0.5,0.4-1,0.8-1.4,1.3C104.3,111.1,104.8,110.7,105.3,110.2z" fill="#F9E373"/><path d="M43.9,122.7c-0.1,0-0.1,0-0.2-0.1C43.8,122.6,43.9,122.6,43.9,122.7z" fill="#F9E373"/><path d="M101,113.7c-0.7,0.5-1.4,1-2.1,1.5C99.7,114.7,100.4,114.2,101,113.7z" fill="#F9E373"/><path d="M41.5,121.8c-0.1,0-0.1-0.1-0.2-0.1C41.4,121.7,41.4,121.7,41.5,121.8z" fill="#F9E373"/><polygon fill="#F9E373" points="39,120.7 39,120.7 39,120.7    "/><path d="M98.1,115.8c-0.5,0.3-0.9,0.6-1.4,0.9C97.2,116.4,97.6,116.1,98.1,115.8z" fill="#F9E373"/><path d="M94.1,118.2c0.5-0.3,1.1-0.6,1.6-0.9C95.2,117.6,94.7,117.9,94.1,118.2z" fill="#F9E373"/><path d="M96.7,116.7c0.5-0.3,1-0.6,1.4-0.9c0.3-0.2,0.6-0.4,0.8-0.6c0.7-0.5,1.4-1,2.1-1.5     c0.1-0.1,0.2-0.2,0.4-0.3c0.6-0.5,1.2-0.9,1.8-1.4c0.2-0.2,0.5-0.4,0.7-0.6c0.5-0.4,1-0.8,1.4-1.3c0.2-0.2,0.4-0.4,0.6-0.6     c0.7-0.6,1.3-1.2,1.9-1.8L39,39v81.7c0,0,0,0,0,0c0.8,0.3,1.5,0.6,2.3,0.9c0.1,0,0.1,0.1,0.2,0.1c0.8,0.3,1.5,0.6,2.3,0.8     c0.1,0,0.1,0,0.2,0.1c4.9,1.7,10.1,2.8,15.5,3.2V84.6l34,34c0.2-0.1,0.5-0.3,0.7-0.4c0.5-0.3,1.1-0.6,1.6-0.9     C96.1,117.1,96.4,116.9,96.7,116.7z" fill="#F9E373"/></g><g><polygon fill="#2D2E2D" points="107.1,108.5 107.1,108.5 107.1,108.5    "/><polygon fill="#2D2E2D" points="40,121.2 40,121.2 40,121.2    "/><polygon fill="#2D2E2D" points="108.5,107.1 108.5,107.1 108.5,107.1    "/><path d="M39.7,38.3c-0.3-0.3-0.7-0.4-1.1-0.2C38.2,38.2,38,38.6,38,39v81.3c0.7,0.3,1.3,0.6,2,0.9c0,0,0,0,0,0     V41.4l67.1,67.1c0,0,0,0,0,0c0.5-0.5,0.9-0.9,1.4-1.4c0,0,0,0,0,0L39.7,38.3z" fill="#2D2E2D"/><polygon fill="#2D2E2D" points="92.5,119.1 92.5,119.1 92.5,119.1    "/><path d="M58.4,125.7c0.7,0.1,1.3,0.1,2,0.2l0,0C59.8,125.9,59.1,125.8,58.4,125.7L58.4,125.7z" fill="#2D2E2D"/><path d="M60.1,83.9c-0.3-0.3-0.7-0.4-1.1-0.2c-0.4,0.2-0.6,0.5-0.6,0.9v41.2c0.7,0.1,1.3,0.1,2,0.2V87l32.1,32.1     l0,0c0.6-0.3,1.2-0.6,1.8-1L60.1,83.9z" fill="#2D2E2D"/></g><g><g><path d="M43.8,116.6h-4.7c-0.6,0-1,0.4-1,1s0.4,1,1,1h4.7c0.6,0,1-0.4,1-1S44.4,116.6,43.8,116.6z" fill="#2D2E2D"/></g><g><path d="M43.8,108.7h-4.7c-0.6,0-1,0.4-1,1s0.4,1,1,1h4.7c0.6,0,1-0.4,1-1S44.4,108.7,43.8,108.7z" fill="#2D2E2D"/></g><g><path d="M43.8,100.9h-4.7c-0.6,0-1,0.4-1,1s0.4,1,1,1h4.7c0.6,0,1-0.4,1-1S44.4,100.9,43.8,100.9z" fill="#2D2E2D"/></g><g><path d="M43.8,93h-4.7c-0.6,0-1,0.4-1,1s0.4,1,1,1h4.7c0.6,0,1-0.4,1-1S44.4,93,43.8,93z" fill="#2D2E2D"/></g><g><path d="M43.8,85.1h-4.7c-0.6,0-1,0.4-1,1s0.4,1,1,1h4.7c0.6,0,1-0.4,1-1S44.4,85.1,43.8,85.1z" fill="#2D2E2D"/></g><g><path d="M43.8,77.3h-4.7c-0.6,0-1,0.4-1,1s0.4,1,1,1h4.7c0.6,0,1-0.4,1-1S44.4,77.3,43.8,77.3z" fill="#2D2E2D"/></g><g><path d="M43.8,69.4h-4.7c-0.6,0-1,0.4-1,1s0.4,1,1,1h4.7c0.6,0,1-0.4,1-1S44.4,69.4,43.8,69.4z" fill="#2D2E2D"/></g><g><path d="M43.8,61.6h-4.7c-0.6,0-1,0.4-1,1s0.4,1,1,1h4.7c0.6,0,1-0.4,1-1S44.4,61.6,43.8,61.6z" fill="#2D2E2D"/></g></g></g></g></svg>