<?xml version="1.0" ?><!DOCTYPE svg  PUBLIC '-//W3C//DTD SVG 1.1//EN'  'http://www.w3.org/Graphics/SVG/1.1/DTD/svg11.dtd'><svg enable-background="new 0 0 128 128" id="Слой_1" version="1.1" viewBox="0 0 128 128" xml:space="preserve" xmlns="http://www.w3.org/2000/svg" xmlns:xlink="http://www.w3.org/1999/xlink"><g><g><circle cx="64" cy="64" fill="#F6F3E0" r="62"/><g><g><path d="M126,64c0-7.4-1.3-14.6-3.7-21.2C97.3,46.5,78.1,68,78.1,94c0,10.3,3,19.8,8.1,27.9      C109.5,112.9,126,90.4,126,64z" fill="#E7E8E3"/></g><g><path d="M79.1,94c0-25.5,18.9-46.7,43.5-50.2c-0.2-0.6-0.5-1.3-0.7-1.9C96.6,45.7,77.1,67.6,77.1,94      c0,10.4,3,20.1,8.2,28.2c0.6-0.2,1.3-0.5,1.9-0.7C82.1,113.6,79.1,104.1,79.1,94z" fill="#2D2E2D"/></g><g><path d="M78.1,41.2c-0.6,0-1,0.4-1,1v82.4c0.7-0.1,1.3-0.3,2-0.5V42.2C79.1,41.7,78.7,41.2,78.1,41.2z" fill="#2D2E2D"/></g><g><g><rect fill="#65C1C2" height="6.5" width="6.5" x="74.9" y="39"/></g><g><path d="M81.4,38h-6.5c-0.6,0-1,0.4-1,1v6.5c0,0.6,0.4,1,1,1h6.5c0.6,0,1-0.4,1-1V39C82.4,38.4,81.9,38,81.4,38       z M80.4,44.5h-4.5V40h4.5V44.5z" fill="#2D2E2D"/></g></g><g><g><rect fill="#E3725D" height="6.5" width="6.5" x="74.9" y="90.8"/></g><g><path d="M81.4,89.8h-6.5c-0.6,0-1,0.4-1,1v6.5c0,0.6,0.4,1,1,1h6.5c0.6,0,1-0.4,1-1v-6.5       C82.4,90.2,81.9,89.8,81.4,89.8z M80.4,96.2h-4.5v-4.5h4.5V96.2z" fill="#2D2E2D"/></g></g></g></g></g><g><polygon fill="#E7E8E3" points="13.1,45.5 38,34.7 48.4,10.1 66.1,63.2 66.1,63.2  "/><polygon fill="none" points="   13.1,45.5 38,34.7 48.4,10.1 66.1,63.2 66.1,63.2  " stroke="#2D2E2D" stroke-linecap="round" stroke-linejoin="round" stroke-miterlimit="10" stroke-width="2"/><polygon fill="#040606" opacity="0.1" points="13.1,45.5 66.1,63.2 37.7,34.8  "/></g></svg>