<?xml version="1.0" ?><!DOCTYPE svg  PUBLIC '-//W3C//DTD SVG 1.1//EN'  'http://www.w3.org/Graphics/SVG/1.1/DTD/svg11.dtd'><svg enable-background="new 0 0 128 128" id="Слой_1" version="1.1" viewBox="0 0 128 128" xml:space="preserve" xmlns="http://www.w3.org/2000/svg" xmlns:xlink="http://www.w3.org/1999/xlink"><g><circle cx="64" cy="64" fill="#F6F3E0" r="62"/><g><g><path d="M85.3,5.7l-48,48c-6.1,6.1-6.1,16.1,0,22.2L51,89.8c6.1,6.1,16.1,6.1,22.2,0l48.5-48.5     C115.2,24.8,101.9,11.8,85.3,5.7z" fill="#A3CA55"/></g><g opacity="0.1"><path d="M37.2,76L51,89.8c6.1,6.1,16.1,6.1,22.2,0l-36-36C31.1,59.9,31.1,69.9,37.2,76z" fill="#040606"/></g><g><path d="M85.3,5.7L74.7,16.3l36,36l11-11C115.2,24.8,101.9,11.8,85.3,5.7z" fill="#E3725D"/></g><g><rect fill="#E7E8E3" height="50.9" transform="matrix(0.7071 -0.7071 0.7071 0.7071 -0.6927 74.1079)" width="10.6" x="83.8" y="12.5"/></g><g><path d="M111.6,51.4l-36-36c-0.4-0.4-1-0.4-1.4,0l-7.5,7.5c-0.4,0.4-0.4,1,0,1.4l36,36c0.2,0.2,0.4,0.3,0.7,0.3     s0.5-0.1,0.7-0.3l7.5-7.5C111.9,52.4,111.9,51.8,111.6,51.4z M103.3,58.2L68.8,23.7l6.1-6.1l34.6,34.6L103.3,58.2z" fill="#2D2E2D"/></g><g><path d="M72.5,89.1c-2.8,2.8-6.5,4.3-10.4,4.3c-3.9,0-7.6-1.5-10.4-4.3L37.9,75.3c-5.7-5.7-5.7-15.1,0-20.8     L86.3,6.1c-0.7-0.3-1.4-0.5-2.1-0.8L36.5,53.1c-6.5,6.5-6.5,17.1,0,23.6l13.8,13.8c3.2,3.2,7.4,4.9,11.8,4.9     c4.5,0,8.7-1.7,11.8-4.9l48.2-48.2c-0.3-0.7-0.5-1.4-0.8-2L72.5,89.1z" fill="#2D2E2D"/></g></g></g></svg>