<?xml version="1.0" ?><!DOCTYPE svg  PUBLIC '-//W3C//DTD SVG 1.1//EN'  'http://www.w3.org/Graphics/SVG/1.1/DTD/svg11.dtd'><svg enable-background="new 0 0 128 128" id="Слой_1" version="1.1" viewBox="0 0 128 128" xml:space="preserve" xmlns="http://www.w3.org/2000/svg" xmlns:xlink="http://www.w3.org/1999/xlink"><g><circle cx="64" cy="64" fill="#F6F3E0" r="62"/><g><g><polygon fill="#E7E8E3" points="34,75.6 70.9,92.4 70.9,75.6    "/></g><g><g><polygon fill="#F9FAF8" points="44,75.6 34,75.6 71.5,92.4 69.6,87.1     "/></g></g><g><path d="M71.9,92.4V75.6c0-0.6-0.4-1-1-1H34c-0.5,0-0.9,0.3-1,0.8c0,0.1,0,0.1,0,0.2c0,0.4,0.2,0.7,0.6,0.9     l36.9,16.9c0.3,0.1,0.7,0.1,1-0.1C71.8,93.1,71.9,92.8,71.9,92.4z M38.6,76.6h31.3v14.3L38.6,76.6z" fill="#2D2E2D"/></g><g><g><path d="M70.9,92.4h48.2c2.7-5.2,4.7-10.9,5.8-16.9h-54V92.4z" fill="#AB8C66"/></g><g opacity="0.1"><path d="M70.9,92.4h48.2c0.9-1.8,1.8-3.7,2.6-5.6H70.9V92.4z" fill="#030505"/></g><g><path d="M69.9,75.6v16.9c0,0.6,0.4,1,1,1h47.6c0.4-0.7,0.7-1.3,1-2H71.9V76.6h52.8c0.1-0.7,0.2-1.3,0.4-2H70.9      C70.4,74.6,69.9,75,69.9,75.6z" fill="#2D2E2D"/></g></g></g><g><g><g><path d="M64,44c0-4.7-3.8-8.4-8.4-8.4H8.9c-2.7,5.2-4.7,10.9-5.8,16.9h52.5C60.2,52.4,64,48.7,64,44z" fill="#AB8C66"/></g><g opacity="0.1"><path d="M63.5,46.8H4.4c-0.5,1.8-1,3.7-1.3,5.6h52.5C59.2,52.4,62.4,50.1,63.5,46.8z" fill="#030505"/></g><g><path d="M65,44c0-5.2-4.2-9.4-9.4-9.4H9.4c-0.4,0.7-0.7,1.3-1,2h47.2c4.1,0,7.4,3.3,7.4,7.4s-3.3,7.4-7.4,7.4      H3.3c-0.1,0.7-0.2,1.3-0.4,2h52.6C60.8,53.4,65,49.2,65,44z" fill="#2D2E2D"/></g></g></g></g></svg>