<?xml version="1.0" ?><!DOCTYPE svg  PUBLIC '-//W3C//DTD SVG 1.1//EN'  'http://www.w3.org/Graphics/SVG/1.1/DTD/svg11.dtd'><svg enable-background="new 0 0 128 128" id="Слой_1" version="1.1" viewBox="0 0 128 128" xml:space="preserve" xmlns="http://www.w3.org/2000/svg" xmlns:xlink="http://www.w3.org/1999/xlink"><circle cx="64" cy="64" fill="#F6F3E0" r="62"/><g><g><path d="M120.5,38.5v21.7h-53V7.8h22.6C82.2,4.1,73.3,2,64,2c-2.8,0-5.5,0.2-8.2,0.6v69.5h69.7    c0.3-2.6,0.5-5.3,0.5-8.1C126,54.9,124,46.3,120.5,38.5z" fill="#ECD652"/></g><g><path d="M66.5,7.8v52.5c0,0.6,0.4,1,1,1h53c0.6,0,1-0.4,1-1V40.8c-0.6-1.5-1.3-3-2-4.4v22.9h-51V8.8h23.7    c-1.4-0.7-2.8-1.4-4.3-2H67.5C66.9,6.8,66.5,7.2,66.5,7.8z" fill="#2D2E2D"/></g><g><path d="M55.8,90c0.6,0,1-0.4,1-1V2.4c-0.7,0.1-1.3,0.2-2,0.3V89C54.8,89.6,55.2,90,55.8,90z" fill="#2D2E2D"/></g><g><path d="M39,71.1c-0.6,0-1,0.4-1,1s0.4,1,1,1h86.3c0.1-0.7,0.2-1.3,0.3-2H39z" fill="#2D2E2D"/></g></g></svg>