<?xml version="1.0" ?><!DOCTYPE svg  PUBLIC '-//W3C//DTD SVG 1.1//EN'  'http://www.w3.org/Graphics/SVG/1.1/DTD/svg11.dtd'><svg enable-background="new 0 0 128 128" id="Слой_1" version="1.1" viewBox="0 0 128 128" xml:space="preserve" xmlns="http://www.w3.org/2000/svg" xmlns:xlink="http://www.w3.org/1999/xlink"><g><circle cx="64" cy="64" fill="#F6F3E0" r="62"/><g><g><g><path d="M47.1,91.6c7.4,7.4,16.3,7,28.1,0l19.2-10.7c0.5-0.3,0.9-0.7,1.1-1.1l-22.8,0c-0.7,2.2-2.6,3.8-5,3.8      c-2.9,0-5.3-2.4-5.3-5.3c0-2.9,2.4-5.3,5.3-5.3c2.4,0,4.4,1.6,5,3.8h22.8c-0.3-0.4-0.6-0.8-1.1-1.1L75.2,65      c-11.9-7-20.8-7.4-28.1,0c-3.7,3.7-5.5,8.5-5.5,13.3C41.6,83.1,43.4,87.9,47.1,91.6z" fill="#F9E373"/></g></g><g><g><path d="M46.4,92.3c7.5,7.5,16.8,7.6,29.3,0.2l19.2-10.7c0.6-0.4,1.2-0.9,1.5-1.5c0.2-0.3,0.2-0.7,0-1      c-0.2-0.3-0.5-0.5-0.9-0.5H72.8c-0.4,0-0.8,0.3-1,0.7c-0.5,1.8-2.2,3.1-4.1,3.1c-1.1,0-2.2-0.4-3-1.3c-0.8-0.8-1.3-1.9-1.3-3      c0-2.4,1.9-4.3,4.3-4.3c1.8,0,3.5,1.3,4.1,3.1c0.1,0.4,0.5,0.7,1,0.7h22.8c0.4,0,0.7-0.2,0.9-0.5c0.2-0.3,0.2-0.7,0-1      c-0.2-0.3-0.4-0.6-0.6-0.8c-0.3-0.3-0.6-0.5-0.9-0.7L75.8,64.1c-12.5-7.4-21.9-7.4-29.4,0.2c-3.7,3.7-5.8,8.7-5.8,14      C40.6,83.6,42.6,88.6,46.4,92.3z M74.8,65.8l17.9,9.9H73.5c-0.3-0.7-0.8-1.4-1.3-1.9C71,72.6,69.4,72,67.8,72      c-3.5,0-6.3,2.8-6.3,6.3c0,1.7,0.7,3.3,1.8,4.4c1.2,1.2,2.8,1.8,4.4,1.8c2.5,0,4.7-1.5,5.7-3.8h19.1l-17.9,10      c-11.8,7-20.1,7-26.9,0.2c-3.4-3.4-5.2-7.8-5.2-12.6c0-4.8,1.9-9.2,5.2-12.6C54.7,58.8,63,58.8,74.8,65.8z" fill="#2D2E2D"/></g></g><g opacity="0.1"><g><path d="M42,82c0.7-3.5,2.4-6.8,5.1-9.6c7.4-7.4,16.7-9.3,31.2-3c0,0,18.2,7.3,16.2,6.2L75.2,65      c-11.9-7-20.8-7.4-28.1,0c-3.7,3.7-5.5,8.5-5.5,13.3C41.6,79.5,41.7,80.8,42,82z" fill="#040606"/></g></g><g><path d="M44.9,67L2.1,67c0.4,7.7,2.2,15.4,5.4,22.6l37.4,0L44.9,67z" fill="#52544F"/></g><g><path d="M44.9,67L2.1,67c0.4,7.7,2.2,15.4,5.4,22.6l37.4,0L44.9,67z" fill="#52544F"/></g><g><rect fill="#CCD1CD" height="22.6" width="15.1" x="29.8" y="67"/></g><g opacity="0.1"><g><path d="M44.9,67L2.1,67c0.1,2.5,0.4,5,0.8,7.5l42,0L44.9,67z" fill="#040606"/></g></g><g><path d="M28.8,89.6c0,0.5,0.5,1,1,1l15.1,0c0.6,0,1-0.4,1-1V67c0-0.3-0.1-0.5-0.3-0.7c-0.2-0.2-0.4-0.3-0.7-0.3     l-15.1,0c-0.6,0-1,0.4-1,1V89.6z M43.9,68v20.6l-13.1,0V68L43.9,68z" fill="#2D2E2D"/></g><g><path d="M45.9,89.6V67c0-0.3-0.1-0.5-0.3-0.7c-0.2-0.2-0.4-0.3-0.7-0.3H2c0,0.7,0.1,1.3,0.1,2h41.8v20.6l-36.8,0     c0.3,0.7,0.6,1.3,0.9,2l36.9,0C45.5,90.6,45.9,90.1,45.9,89.6z" fill="#2D2E2D"/></g></g><g><g><path d="M74.6,35.8L74.6,35.8c0,6.2,5.1,11.3,11.3,11.3l37.8,0c-2.3-8.1-6.2-15.8-11.8-22.6l-25.9,0     C79.6,24.5,74.6,29.6,74.6,35.8z" fill="#52544F"/></g><g><path d="M74.6,35.8L74.6,35.8c0,6.2,5.1,11.3,11.3,11.3l37.8,0c-2.3-8.1-6.2-15.8-11.8-22.6l-25.9,0     C79.6,24.5,74.6,29.6,74.6,35.8z" fill="#52544F"/></g><g opacity="0.1"><g><path d="M74.6,35.8c0,1.3,0.2,2.6,0.7,3.8c1.6-4.4,5.7-7.5,10.6-7.5h31.3c-1.6-2.6-3.3-5.1-5.3-7.5l-25.9,0      C79.6,24.5,74.6,29.6,74.6,35.8z" fill="#040606"/></g></g><g><path d="M77.2,27.1c-2.3,2.3-3.6,5.4-3.6,8.7c0,3.3,1.3,6.4,3.6,8.7s5.4,3.6,8.7,3.6l38.1,0     c-0.2-0.7-0.4-1.3-0.5-2H85.9c-2.8,0-5.3-1.1-7.3-3c-1.9-1.9-3-4.5-3-7.3s1.1-5.3,3-7.3c1.9-1.9,4.5-3,7.3-3h26.7     c-0.5-0.7-1.1-1.3-1.7-2H85.9C82.6,23.5,79.5,24.8,77.2,27.1z" fill="#2D2E2D"/></g></g></g></svg>