<?xml version="1.0" ?><!DOCTYPE svg  PUBLIC '-//W3C//DTD SVG 1.1//EN'  'http://www.w3.org/Graphics/SVG/1.1/DTD/svg11.dtd'><svg enable-background="new 0 0 128 128" id="Слой_1" version="1.1" viewBox="0 0 128 128" xml:space="preserve" xmlns="http://www.w3.org/2000/svg" xmlns:xlink="http://www.w3.org/1999/xlink"><circle cx="64" cy="64" fill="#F6F3E0" r="62"/><g><g><path d="M34,31.6c-2.5,0-4.5,2-4.5,4.5v10.5c0,2.5,2,4.5,4.5,4.5s4.5-2,4.5-4.5V36.1C38.5,33.6,36.5,31.6,34,31.6z    " fill="#AB8C66"/></g><g><g><path d="M34,30.6c-3,0-5.5,2.5-5.5,5.5v10.5c0,3,2.5,5.5,5.5,5.5s5.5-2.5,5.5-5.5V36.1C39.5,33,37,30.6,34,30.6z      M37.5,46.5c0,1.9-1.6,3.5-3.5,3.5s-3.5-1.6-3.5-3.5V36.1c0-1.9,1.6-3.5,3.5-3.5s3.5,1.6,3.5,3.5V46.5z" fill="#2D2E2D"/></g><g><path d="M44.9,88.3c-2,0.5-3.2,2.6-2.6,4.6l11.2,32.2c2.7,0.5,5.4,0.7,8.2,0.8L49.5,91C49,89,46.9,87.8,44.9,88.3     z" fill="#AB8C66"/></g><g><path d="M23.1,88.3c-2-0.5-4,0.6-4.6,2.6l-3.7,10.7c1.7,2.3,3.6,4.4,5.6,6.4l5.3-15.2     C26.2,90.9,25.1,88.9,23.1,88.3z" fill="#AB8C66"/></g></g><g><path d="M23.3,87.4c-0.4-0.1-0.8-0.2-1.2-0.2c-2.1,0-4,1.4-4.5,3.4l-3.5,10.1c0.5,0.6,1,1.3,1.5,1.9l4-11.4    c0.3-1.2,1.4-2,2.6-2c0.2,0,0.5,0,0.7,0.1c1.5,0.4,2.3,1.9,1.9,3.3l-5.1,14.7c0.5,0.5,1,1,1.6,1.6l5.5-15.7    C27.4,90.7,25.9,88.1,23.3,87.4z" fill="#2D2E2D"/></g><g><path d="M45.9,87.2c-0.4,0-0.8,0.1-1.2,0.2c-2.5,0.7-4,3.3-3.3,5.9l11,31.7c0.7,0.1,1.5,0.3,2.3,0.4L43.3,92.7    c-0.4-1.5,0.5-3,1.9-3.3c0.2-0.1,0.5-0.1,0.7-0.1c1.2,0,2.3,0.8,2.7,2.1l12,34.6c0.7,0,1.4,0.1,2.1,0.1L50.5,90.7    C49.9,88.7,48,87.2,45.9,87.2z" fill="#2D2E2D"/></g><g><g><path d="M82.4,96.7V56.4c0-7.4-6-13.3-13.3-13.3H5.6C3.3,49.6,2,56.6,2,64c0,18.3,7.9,34.7,20.5,46.1h46.6     C76.5,110.1,82.4,104.1,82.4,96.7z" fill="#E7E8E3"/></g><g><circle cx="54.2" cy="73.3" fill="#F9E373" r="14.9"/></g><g><path d="M54.2,57.4c-8.8,0-15.9,7.1-15.9,15.9c0,8.8,7.1,15.9,15.9,15.9s15.9-7.1,15.9-15.9     C70.1,64.5,63,57.4,54.2,57.4z M54.2,87.2c-7.7,0-13.9-6.2-13.9-13.9c0-7.7,6.2-13.9,13.9-13.9s13.9,6.2,13.9,13.9     C68.1,81,61.9,87.2,54.2,87.2z" fill="#2D2E2D"/></g><g><path d="M48.4,80.3l-10.1,14l-16.3-22L8.6,91.8c3.4,6.8,8,12.9,13.6,18l48.8-0.6L48.4,80.3z" fill="#A3CA55"/></g><g><path d="M49.2,79.7c-0.2-0.2-0.5-0.4-0.8-0.4c-0.3,0-0.6,0.2-0.8,0.4l-21.9,29.8c-0.3,0.4-0.2,1.1,0.2,1.4     c0.2,0.1,0.4,0.2,0.6,0.2c0.3,0,0.6-0.1,0.8-0.4l21.1-28.7l21.8,27.8c0.3,0.4,1,0.5,1.4,0.2c0.4-0.3,0.5-1,0.2-1.4L49.2,79.7z" fill="#2D2E2D"/></g><g><path d="M37.1,94.3c0.3,0.4,1,0.5,1.4,0.2c0.4-0.3,0.5-1,0.2-1.4L22.9,71.7c-0.2-0.3-0.5-0.4-0.8-0.4     c-0.3,0-0.6,0.2-0.8,0.4l-13.2,19c0.3,0.7,0.7,1.4,1,2l13-18.8L37.1,94.3z" fill="#2D2E2D"/></g><g><path d="M83.4,96.7V56.4C83.4,48.5,77,42,69.1,42H6c-0.3,0.7-0.5,1.3-0.7,2h63.8c6.8,0,12.3,5.5,12.3,12.3v40.4     c0,6.8-5.5,12.3-12.3,12.3H21.5c0.7,0.7,1.5,1.4,2.2,2h45.4C77,111.1,83.4,104.7,83.4,96.7z" fill="#2D2E2D"/></g></g><g><g><path d="M82.4,114v-0.3c0-2-1.6-3.6-3.6-3.6H22.5c3.1,2.8,6.6,5.3,10.2,7.5h46.1C80.8,117.5,82.4,115.9,82.4,114z     " fill="#AB8C66"/></g><g><path d="M83.4,114v-0.3c0-2.5-2.1-4.6-4.6-4.6H21.5c0.7,0.7,1.5,1.4,2.2,2h55.2c1.4,0,2.6,1.2,2.6,2.6v0.3     c0,1.4-1.2,2.6-2.6,2.6H31.1c1.1,0.7,2.2,1.4,3.4,2h44.4C81.4,118.5,83.4,116.5,83.4,114z" fill="#2D2E2D"/></g></g></g></svg>