<?xml version="1.0" ?><!DOCTYPE svg  PUBLIC '-//W3C//DTD SVG 1.1//EN'  'http://www.w3.org/Graphics/SVG/1.1/DTD/svg11.dtd'><svg enable-background="new 0 0 128 128" id="Слой_1" version="1.1" viewBox="0 0 128 128" xml:space="preserve" xmlns="http://www.w3.org/2000/svg" xmlns:xlink="http://www.w3.org/1999/xlink"><g><circle cx="64" cy="64" fill="#C1E1CA" r="62"/><g><g><g><path d="M71.6,41.6L71.6,41.6c-4.4,4.4-4.4,11.5,0,15.9l42.7,42.7c4.7-6.5,8.1-13.8,10-21.8L87.5,41.6      C83.1,37.2,76,37.2,71.6,41.6z" fill="#52544F"/></g><g><path d="M71.6,57.5l15.9-15.9c-4.4-4.4-11.5-4.4-15.9,0C67.2,46,67.2,53.1,71.6,57.5z" fill="#E7E8E3"/></g><g><rect fill="#CCD1CD" height="15" transform="matrix(-0.7071 0.7071 -0.7071 -0.7071 183.5889 33.6187)" width="22.5" x="73.6" y="47.3"/></g><g opacity="0.1"><g><path d="M71.6,41.6c-0.9,0.9-1.7,2-2.2,3.1c4.2-2,9.3-1.3,12.8,2.2l39.6,39.6c1-2.6,1.9-5.3,2.5-8.1L87.5,41.6       C83.1,37.2,76,37.2,71.6,41.6z" fill="#040606"/></g></g><g><path d="M70.9,56.8c-0.4,0.4-0.4,1,0,1.4s1,0.4,1.4,0l15.9-15.9c0.2-0.2,0.3-0.5,0.3-0.7s-0.1-0.5-0.3-0.7      c-0.4-0.4-1-0.4-1.4,0L70.9,56.8z" fill="#2D2E2D"/></g><g><path d="M81.5,67.4c-0.4,0.4-0.4,1,0,1.4s1,0.4,1.4,0l15.9-15.9c0.2-0.2,0.3-0.5,0.3-0.7s-0.1-0.5-0.3-0.7      c-0.4-0.4-1-0.4-1.4,0L81.5,67.4z" fill="#2D2E2D"/></g><g><path d="M79.5,37.3c-3.3,0-6.3,1.3-8.7,3.6c-2.3,2.3-3.6,5.4-3.6,8.7s1.3,6.3,3.6,8.7l42.9,42.9      c0.4-0.5,0.8-1.1,1.2-1.7L72.3,56.8c-1.9-1.9-3-4.5-3-7.2s1.1-5.3,3-7.2c1.9-1.9,4.5-3,7.2-3s5.3,1.1,7.2,3L124,79.5      c0.2-0.8,0.4-1.5,0.5-2.3L88.2,40.9C85.9,38.6,82.8,37.3,79.5,37.3z" fill="#2D2E2D"/></g></g><g><g><path d="M34.7,80.6l21.7,5.8l-5.8-21.7L13.7,27.8C9,34.2,5.6,41.6,3.7,49.6L34.7,80.6z" fill="#E3725D"/></g><g><polygon fill="#ECD652" points="56.4,86.4 50.6,64.7 34.7,80.6     "/></g><g><path d="M34,79.9c-0.4,0.4-0.4,1,0,1.4s1,0.4,1.4,0l15.9-15.9c0.2-0.2,0.3-0.5,0.3-0.7s-0.1-0.5-0.3-0.7      c-0.4-0.4-1-0.4-1.4,0L34,79.9z" fill="#2D2E2D"/></g><g><polygon fill="#2D2E2D" points="56.4,86.4 55.4,79 49,85.4     "/></g><g opacity="0.1"><g><path d="M45.3,70l11.1,16.4l-5.8-21.7L13.7,27.8c-1.5,2.1-2.9,4.2-4.1,6.5L45.3,70z" fill="#040606"/></g></g><g><path d="M49.7,65.2L55,85l-19.8-5.3L4,48.5c-0.2,0.8-0.4,1.5-0.5,2.3L34,81.3c0.1,0.1,0.3,0.2,0.4,0.3l21.7,5.8      c0.3,0.1,0.7,0,1-0.3c0.2-0.2,0.3-0.4,0.3-0.7c0-0.1,0-0.2,0-0.3l-5.8-21.7c0-0.2-0.1-0.3-0.3-0.4l-37-37      c-0.4,0.5-0.8,1.1-1.2,1.7L49.7,65.2z" fill="#2D2E2D"/></g></g></g></g></svg>