<?xml version="1.0" ?><!DOCTYPE svg  PUBLIC '-//W3C//DTD SVG 1.1//EN'  'http://www.w3.org/Graphics/SVG/1.1/DTD/svg11.dtd'><svg enable-background="new 0 0 128 128" id="Слой_1" version="1.1" viewBox="0 0 128 128" xml:space="preserve" xmlns="http://www.w3.org/2000/svg" xmlns:xlink="http://www.w3.org/1999/xlink"><g><g><circle cx="64" cy="64" fill="#F6F3E0" r="62"/><g><g><path d="M94,33c-29.1,0-52.8,23.7-52.8,52.8c0,0.6,0.4,1,1,1s1-0.4,1-1C43.2,57.8,66,35,94,35c0.6,0,1-0.4,1-1      S94.6,33,94,33z" fill="#2D2E2D"/></g><g><path d="M94,33c-0.6,0-1,0.4-1,1s0.4,1,1,1c7.8,0,15.3-1.7,22-4.8c-0.4-0.6-0.7-1.1-1.1-1.7      C108.5,31.4,101.4,33,94,33z" fill="#2D2E2D"/></g><g><path d="M42.2,33c-0.6,0-1,0.4-1,1s0.4,1,1,1h76.6c-0.4-0.7-0.7-1.3-1.1-2H42.2z" fill="#2D2E2D"/></g><g><g><rect fill="#E3725D" height="6.5" width="6.5" x="39" y="82.5"/></g><g><path d="M45.5,81.5H39c-0.6,0-1,0.4-1,1V89c0,0.6,0.4,1,1,1h6.5c0.6,0,1-0.4,1-1v-6.5       C46.5,82,46,81.5,45.5,81.5z M44.5,88H40v-4.5h4.5V88z" fill="#2D2E2D"/></g></g><g><g><rect fill="#E3725D" height="6.5" width="6.5" x="90.8" y="30.8"/></g><g><path d="M97.2,29.8h-6.5c-0.6,0-1,0.4-1,1v6.5c0,0.6,0.4,1,1,1h6.5c0.6,0,1-0.4,1-1v-6.5       C98.2,30.2,97.8,29.8,97.2,29.8z M96.2,36.2h-4.5v-4.5h4.5V36.2z" fill="#2D2E2D"/></g></g><g><g><rect fill="#65C1C2" height="6.5" width="6.5" x="39" y="30.8"/></g><g><path d="M45.5,29.8H39c-0.6,0-1,0.4-1,1v6.5c0,0.6,0.4,1,1,1h6.5c0.6,0,1-0.4,1-1v-6.5       C46.5,30.2,46,29.8,45.5,29.8z M44.5,36.2H40v-4.5h4.5V36.2z" fill="#2D2E2D"/></g></g></g></g><g><polygon fill="#E7E8E3" points="116.1,77.8 91.2,88.6 80.7,113.2 63.1,60.1 63.1,60.1   "/><polygon fill="none" points="    116.1,77.8 91.2,88.6 80.7,113.2 63.1,60.1 63.1,60.1   " stroke="#2D2E2D" stroke-linecap="round" stroke-linejoin="round" stroke-miterlimit="10" stroke-width="2"/><polygon fill="#040606" opacity="0.1" points="116.1,77.8 63.1,60.1 91.4,88.5   "/></g></g></svg>