<?xml version="1.0" ?><!DOCTYPE svg  PUBLIC '-//W3C//DTD SVG 1.1//EN'  'http://www.w3.org/Graphics/SVG/1.1/DTD/svg11.dtd'><svg enable-background="new 0 0 128 128" id="Слой_1" version="1.1" viewBox="0 0 128 128" xml:space="preserve" xmlns="http://www.w3.org/2000/svg" xmlns:xlink="http://www.w3.org/1999/xlink"><circle cx="64" cy="64" fill="#EEEBA8" r="62"/><g><g><path d="M62.8,29.7L48.9,43.6l-0.5,10.1L43,59l1.1,1.1l-5.3,5.3l1.1,1.1l1.1,1.1l5.3-5.3l1.1,1.1l5.3-5.3l10.1-0.5    l14.1-14.1l1.1,1.1l27.1-27.1c-5.8-5.1-12.6-9.1-20-11.8L61.7,28.6L62.8,29.7z" fill="#AB8C66"/></g></g><g><polygon fill="#CCD1CD" points="48.9,43.6 48.3,53.7 43,59 44.1,60.1 46.2,62.2 47.3,63.2 52.6,57.9 62.7,57.4 76.6,43.5    62.8,29.7  "/></g><g><polygon fill="#52544F" points="38.8,65.4 39.9,66.4 40.9,67.5 46.2,62.2 44.1,60.1  "/></g><g opacity="0.1"><g><path d="M71.4,38.1L57.4,52.1l-9,0.5l-0.1,1.1L43,59l2.1,2.1l-5.3,5.3l1.1,1.1l5.3-5.3l1.1,1.1l5.3-5.3l10.1-0.5    l14.1-14.1l1.1,1.1l27.1-27.1c-1.9-1.7-3.9-3.2-6-4.6L72.5,39.1L71.4,38.1z" fill="#040606"/></g></g><g><g><path d="M61,29.3l0.4,0.4L48.2,42.9c-0.2,0.2-0.3,0.4-0.3,0.7l-0.5,9.7l-5,5c-0.4,0.4-0.4,1,0,1.4l0.8,0.8    l-4.6,4.6c-0.2,0.2-0.3,0.4-0.3,0.7c0,0.3,0.1,0.5,0.3,0.7l1.2,1.2c0.2,0.2,0.4,0.3,0.7,0.3s0.5-0.1,0.7-0.3l4.6-4.6l0.9,0.9    c0.2,0.2,0.4,0.3,0.7,0.3s0.5-0.1,0.7-0.3l5-5l9.7-0.5c0.2,0,0.5-0.1,0.7-0.3l13.2-13.2l0.4,0.4c0.4,0.4,1,0.4,1.4,0L105.6,18    c-0.5-0.4-1-0.9-1.5-1.3L77.6,43.1l-0.4-0.4c-0.4-0.4-1-0.4-1.4,0L62.2,56.4l-9.7,0.5c-0.2,0-0.5,0.1-0.7,0.3l-4.6,4.6L46.4,61    c-0.2-0.2-0.4-0.3-0.7-0.3c-0.1,0-0.1,0-0.2,0c0.1-0.3,0-0.7-0.3-0.9L44.4,59l4.6-4.6c0.2-0.2,0.3-0.4,0.3-0.7l0.5-9.7l13.6-13.6    c0.4-0.4,0.4-1,0-1.4l-0.4-0.4L85.8,6c-0.7-0.3-1.4-0.5-2.1-0.7L61,27.9C60.6,28.3,60.6,29,61,29.3z" fill="#2D2E2D"/></g></g><g><path d="M49.6,42.9c-0.4-0.4-1-0.4-1.4,0s-0.4,1,0,1.4l13.8,13.8c0.2,0.2,0.5,0.3,0.7,0.3s0.5-0.1,0.7-0.3   c0.4-0.4,0.4-1,0-1.4L49.6,42.9z" fill="#2D2E2D"/></g><g><path d="M49,53c-0.4-0.4-1-0.4-1.4,0s-0.4,1,0,1.4l4.2,4.2c0.2,0.2,0.5,0.3,0.7,0.3s0.5-0.1,0.7-0.3   c0.4-0.4,0.4-1,0-1.4L49,53z" fill="#2D2E2D"/></g><g><path d="M43.7,58.3c-0.4-0.4-1-0.4-1.4,0s-0.4,1,0,1.4l4.2,4.2c0.2,0.2,0.5,0.3,0.7,0.3s0.5-0.1,0.7-0.3   c0.4-0.4,0.4-1,0-1.4L43.7,58.3z" fill="#2D2E2D"/></g><g><path d="M63.5,29c-0.4-0.4-1-0.4-1.4,0s-0.4,1,0,1.4L76,44.3c0.2,0.2,0.5,0.3,0.7,0.3s0.5-0.1,0.7-0.3   c0.4-0.4,0.4-1,0-1.4L63.5,29z" fill="#2D2E2D"/></g><g><g><path d="M74.7,83.3c-4.4-4.4-11.5-4.4-15.9,0l-31,31c6.5,4.7,13.8,8.1,21.8,10l25.1-25.1    C79.1,94.8,79.1,87.7,74.7,83.3z" fill="#AB8C66"/></g></g><g opacity="0.1"><g><path d="M74.7,83.3c-0.9-0.9-2-1.7-3.1-2.2c2,4.2,1.3,9.3-2.2,12.8l-27.9,27.9c2.6,1,5.3,1.9,8.1,2.5l25.1-25.1    C79.1,94.8,79.1,87.7,74.7,83.3z" fill="#040606"/></g></g><g><g><path d="M79,91.2c0-3.3-1.3-6.3-3.6-8.7C73.1,80.3,70,79,66.8,79s-6.3,1.3-8.7,3.6L27,113.7    c0.5,0.4,1.1,0.8,1.7,1.2L59.5,84c1.9-1.9,4.5-3,7.2-3s5.3,1.1,7.2,3c1.9,1.9,3,4.5,3,7.2s-1.1,5.3-3,7.2L48.5,124    c0.8,0.2,1.5,0.4,2.3,0.5l24.7-24.7C77.7,97.6,79,94.5,79,91.2z" fill="#2D2E2D"/></g></g></svg>