<?xml version="1.0" ?><!DOCTYPE svg  PUBLIC '-//W3C//DTD SVG 1.1//EN'  'http://www.w3.org/Graphics/SVG/1.1/DTD/svg11.dtd'><svg enable-background="new 0 0 128 128" id="Слой_1" version="1.1" viewBox="0 0 128 128" xml:space="preserve" xmlns="http://www.w3.org/2000/svg" xmlns:xlink="http://www.w3.org/1999/xlink"><g><path d="M64,2C29.8,2,2,29.8,2,64c0,23.8,13.4,44.4,33,54.8c8.7,4.6,46.3,5.3,54,1.9c21.8-9.6,37-31.4,37-56.8   C126,29.8,98.2,2,64,2z" fill="#C1E1CA"/><g><g><g><path d="M36.9,69.2c1.3-1,2.8-1.6,4.6-1.6h45c1.3,0,2.5,0.4,3.6,1c-0.7-0.7-1.4-1.3-2.1-2      C72.7,53.8,50.4,55.1,36.9,69.2z" fill="#E7E8E3"/></g></g><g><g><path d="M88.6,65.8c-7-5.8-15.8-9.1-24.8-9.1c-10.4,0-20.5,4.3-27.6,11.7c-0.4,0.4-0.4,1,0,1.4      c0.2,0.2,0.5,0.3,0.7,0.3c0.2,0,0.4-0.1,0.6-0.2c1.2-0.9,2.5-1.4,4-1.4h45c1.1,0,2.1,0.3,3.1,0.8c0.4,0.2,1,0.1,1.3-0.3      c0.3-0.4,0.3-1-0.1-1.3C90,67.1,89.3,66.4,88.6,65.8z M41.5,66.6c-0.1,0-0.2,0-0.2,0c6.3-5,14.3-7.8,22.5-7.8      c8.2,0,16.2,2.8,22.6,7.8H41.5z" fill="#2D2E2D"/></g></g><g><g><path d="M86.5,66.1h-45c-4.1,0-7.5,3.4-7.5,7.5v44.7c8.9,4.9,51.2,4.9,60.1,0V73.6C94,69.4,90.7,66.1,86.5,66.1z      " fill="#E3725D"/></g><g><path d="M86.5,65.1h-45c-4.7,0-8.5,3.8-8.5,8.5v44.1c0.7,0.4,1.3,0.8,2,1.1V73.6c0-3.6,2.9-6.5,6.5-6.5h45      c3.6,0,6.5,2.9,6.5,6.5v45.2c0.7-0.4,1.3-0.7,2-1.1V73.6C95,68.9,91.2,65.1,86.5,65.1z" fill="#2D2E2D"/></g><g><g><path d="M71.5,45l-14.7-1c-1.5-0.1-2.8,1.1-2.8,2.7V48c1.1,0.3,2,1.3,2,2.6c0,1.2-0.9,2.3-2,2.6v4.2h20v-9.6       C74,46.3,72.9,45.1,71.5,45z" fill="#52544F"/></g><g><path d="M71.5,45l-14.7-1c-1.5-0.1-2.8,1.1-2.8,2.7V48c1.1,0.3,2,1.3,2,2.6c0,1.2-0.9,2.3-2,2.6v4.2h20v-9.6       C74,46.3,72.9,45.1,71.5,45z" fill="#52544F"/></g><g opacity="0.1"><g><path d="M71.5,45l-14.7-1c-0.5,0-0.9,0.1-1.3,0.3L66.2,45c1.4,0.1,2.5,1.3,2.5,2.7v9.6H74v-9.6        C74,46.3,72.9,45.1,71.5,45z" fill="#040606"/></g></g><g><path d="M71.6,44l-14.7-1c-2.1-0.1-3.9,1.6-3.9,3.7V48c0,0.5,0.3,0.9,0.7,1c0.7,0.2,1.3,0.9,1.3,1.6       s-0.5,1.4-1.3,1.6c-0.4,0.1-0.8,0.5-0.8,1v4.2c0,0.6,0.4,1,1,1h20c0.6,0,1-0.4,1-1v-9.6C75,45.8,73.5,44.1,71.6,44z M73,56.3       H55v-2.5c1.2-0.6,2-1.9,2-3.3c0-1.4-0.8-2.6-2-3.3v-0.6c0-0.9,0.7-1.7,1.7-1.7l14.8,1c0.9,0.1,1.6,0.8,1.6,1.7V56.3z" fill="#2D2E2D"/></g></g><g><path d="M34,93.8v24.5c8.9,4.9,19.1,7.8,30,7.8s21.1-2.8,30-7.8V93.8H34z" fill="#F9E373"/></g><g opacity="0.1"><g><path d="M86.5,66.1h-12c4.1,0,7.5,3.4,7.5,7.5v49.7c4.2-1.3,8.2-3,12-5.1V73.6C94,69.4,90.7,66.1,86.5,66.1z" fill="#040606"/></g></g><g><path d="M94,92.8H34c-0.6,0-1,0.4-1,1v23.9c0.7,0.4,1.3,0.8,2,1.1v-24H93v24c0.7-0.4,1.3-0.7,2-1.1V93.8      C95,93.2,94.6,92.8,94,92.8z" fill="#2D2E2D"/></g></g><g><path d="M94,72.6H34c-0.6,0-1,0.4-1,1s0.4,1,1,1H94c0.6,0,1-0.4,1-1S94.6,72.6,94,72.6z" fill="#2D2E2D"/></g></g></g></svg>