<?xml version="1.0" ?><!DOCTYPE svg  PUBLIC '-//W3C//DTD SVG 1.1//EN'  'http://www.w3.org/Graphics/SVG/1.1/DTD/svg11.dtd'><svg enable-background="new 0 0 128 128" id="Слой_1" version="1.1" viewBox="0 0 128 128" xml:space="preserve" xmlns="http://www.w3.org/2000/svg" xmlns:xlink="http://www.w3.org/1999/xlink"><g><circle cx="64" cy="66" fill="#EEEBA8" r="62"/><g><g><g><path d="M58.7,44.9c-3.4,5-4.3,10.8-5.6,16.6L44,101c-1.6,6.8,1.1,13.4,8,15l11.9-51.9c1-4.5,2.7-8.7,4.9-12.7      L83,28.3L78,24.5L58.7,44.9z" fill="#CCD1CD"/></g><g opacity="0.2"><path d="M67.4,35.7l-8.8,9.2c-1.8,2.6-2.8,5.4-3.7,8.3l0.3,0.5c2,3.6,3.5,7.4,4.4,11.4l2,8.8l2.2-9.8      c1-4.5,2.7-8.7,4.9-12.7l5-8.1l-0.6-1.4L67.4,35.7z" fill="#040606"/></g><g><path d="M78.7,23.7c-0.4-0.3-1-0.3-1.3,0.1L59.7,42.4c-1.8,1.9-3.2,3.9-4.1,6c-1.5,3.3-2.2,7-3,10.5      c-0.2,0.9-0.4,1.7-0.6,2.6l-9.4,41.1c-0.7,3.2-0.2,6.4,1.6,9.2s4.4,4.7,7.6,5.4c0.1,0,0.1,0,0.2,0c0.5,0,0.9-0.3,1-0.8      l11.9-51.9c1-4.4,2.6-8.5,4.8-12.4l14.2-23.1c0.3-0.4,0.2-1-0.2-1.3L78.7,23.7z M67.9,50.9c-2.3,4.1-4,8.4-5,13l-11.6,50.9      c-2.2-0.7-4.1-2.2-5.4-4.2c-1.4-2.3-1.9-5-1.3-7.6L54,61.8c0.2-0.9,0.4-1.7,0.6-2.6c0.8-3.6,1.5-6.9,2.9-10.1      c0.8-1.9,2.1-3.7,3.7-5.4l17-17.9l3.5,2.7L67.9,50.9z" fill="#2D2E2D"/></g><g><path d="M87.3,30.9c8,1.1,15.6-3.4,18.6-10.6c-1.8-1.7-3.8-3.3-5.8-4.7c-1.1,5.4-6.2,9.2-11.8,8.4      c-5.7-0.8-9.7-6.1-8.9-11.9c0.3-2.1,1.2-4,2.5-5.5c-2.4-0.7-4.8-1.3-7.3-1.7c-1.1,1.9-1.8,3.9-2.1,6.2      C71.1,20.7,77.8,29.5,87.3,30.9z" fill="#EBA15B"/></g><g><path d="M80.6,20.5c1.8,2.5,4.5,4,7.6,4.5c0.5,0.1,1.1,0.1,1.6,0.1c5.3,0,10-3.7,11.2-8.8      c-0.6-0.4-1.2-0.9-1.8-1.3c-0.7,4.6-4.7,8.1-9.4,8.1c-0.4,0-0.9,0-1.3-0.1c-2.5-0.4-4.7-1.7-6.3-3.7c-1.5-2-2.2-4.5-1.8-7      c0.3-2,1.2-3.9,2.6-5.3c-0.7-0.2-1.4-0.4-2.1-0.6c-1.3,1.6-2.2,3.5-2.5,5.6C78,15,78.7,18,80.6,20.5z" fill="#2D2E2D"/><path d="M87.2,31.9C88,32,88.9,32,89.8,32c7.4,0,14-4.5,16.9-11c-0.5-0.5-1-1-1.6-1.4      C102.6,25.7,96.6,30,89.8,30c-0.8,0-1.6-0.1-2.3-0.2c-9-1.3-15.3-9.6-14-18.6c0.3-2.2,1.1-4.3,2.2-6.1c-0.7-0.1-1.4-0.3-2.1-0.4      c-1,1.9-1.8,4-2.1,6.2C70,21.1,77.1,30.4,87.2,31.9z" fill="#2D2E2D"/></g></g><g><g><path d="M75.2,61.6c-1.3-5.9-2.2-11.7-5.6-16.6L50.2,24.5l-4.9,3.8l14.2,23.1c2.2,4,3.9,8.3,4.9,12.7L76.1,116      c6.9-1.6,9.6-8.1,8-14.9L75.2,61.6z" fill="#CCD1CD"/></g><g opacity="0.5"><path d="M64.3,64.1L76.1,116c1.7-0.4,3.2-1.1,4.4-2.1l-10.5-46C69.5,65.3,66.9,63.6,64.3,64.1z" fill="#FFFFFF"/></g><g><path d="M76.1,61.3c-0.2-0.9-0.4-1.7-0.6-2.6c-0.9-4.2-1.8-8.5-3.9-12.3c-0.6-1.2-1.5-2.3-2.5-3.4L50.9,23.8      c-0.4-0.4-0.9-0.4-1.3-0.1l-4.9,3.8c-0.4,0.3-0.5,0.9-0.2,1.3l14.1,23c2.2,3.9,3.8,8.1,4.8,12.5l11.8,51.9      c0.1,0.5,0.5,0.8,1,0.8c0.1,0,0.1,0,0.2,0c6.5-1.5,10.6-8,9.1-14.5L76.1,61.3z M76.9,114.7L65.3,63.8c-1-4.6-2.7-8.9-5-13      L46.6,28.5l3.5-2.7l17.7,18.6c0.9,0.9,1.6,1.9,2.2,2.9c1.9,3.6,2.8,7.6,3.7,11.8c0.2,0.9,0.4,1.7,0.6,2.6l9.3,41.1      C84.7,108,81.7,113.1,76.9,114.7z" fill="#2D2E2D"/></g><g><path d="M40.9,30.8c9.6-1.3,16.2-10.2,14.9-19.7c-0.3-2.3-1.1-4.3-2.1-6.2c-2.5,0.4-4.9,1-7.3,1.7      c1.3,1.5,2.2,3.4,2.5,5.5c0.8,5.7-3.2,11-8.9,11.8c-5.6,0.8-10.7-3-11.8-8.5c-2,1.5-4,3-5.9,4.7C25.3,27.3,32.8,31.9,40.9,30.8z      " fill="#EBA15B"/></g><g><path d="M38.5,25c0.5,0,1.1,0,1.6-0.1c6.3-0.9,10.7-6.7,9.8-13c-0.3-2.1-1.2-4.1-2.5-5.6      c-0.7,0.2-1.4,0.4-2.1,0.6c1.4,1.4,2.3,3.2,2.6,5.3c0.7,5.2-2.9,10-8.1,10.7C39.4,23,38.9,23,38.5,23c-4.7,0-8.7-3.5-9.4-8.2      c0,0,0,0,0,0c-0.6,0.4-1.2,0.8-1.8,1.3C28.5,21.2,33.1,25,38.5,25z" fill="#2D2E2D"/><path d="M38.5,32C38.5,32,38.5,32,38.5,32c0.9,0,1.7-0.1,2.6-0.2C51.2,30.4,58.2,21,56.8,10.9      c-0.3-2.2-1-4.3-2.1-6.2c-0.7,0.1-1.4,0.2-2.1,0.4c1.1,1.8,1.9,3.9,2.2,6.1c1.3,9-5,17.4-14,18.6C40,29.9,39.2,30,38.5,30      c-6.9,0-12.9-4.4-15.4-10.6c-0.5,0.5-1.1,1-1.6,1.4C24.4,27.4,31,32,38.5,32z" fill="#2D2E2D"/></g></g><g><g><circle cx="64" cy="47.9" fill="#52544F" r="2.4"/></g><g><path d="M64,44.5c-1.9,0-3.4,1.5-3.4,3.4s1.5,3.4,3.4,3.4c1.9,0,3.4-1.5,3.4-3.4S65.9,44.5,64,44.5z M64,49.3      c-0.8,0-1.4-0.6-1.4-1.4s0.6-1.4,1.4-1.4s1.4,0.6,1.4,1.4S64.8,49.3,64,49.3z" fill="#2D2E2D"/></g></g></g></g></svg>