<?xml version="1.0" ?><!DOCTYPE svg  PUBLIC '-//W3C//DTD SVG 1.1//EN'  'http://www.w3.org/Graphics/SVG/1.1/DTD/svg11.dtd'><svg enable-background="new 0 0 128 128" id="Слой_1" version="1.1" viewBox="0 0 128 128" xml:space="preserve" xmlns="http://www.w3.org/2000/svg" xmlns:xlink="http://www.w3.org/1999/xlink"><circle cx="64" cy="64" fill="#F6F3E0" r="62"/><g><g><path d="M64.4,31.5h-0.7c-1.3,0-2.4,1-2.6,2.3l-3.7,24.5h13.4L67,33.8C66.8,32.5,65.7,31.5,64.4,31.5z" fill="#65C1C2"/></g><g><path d="M80.7,74.3c-1.5,0-2.7-1.2-2.7-2.7v0H50v0c0,1.5-1.2,2.7-2.7,2.7c-7.4,0-13.4,6-13.4,13.4v30.6    c8.9,5,51.3,5,60.2,0V87.7C94.1,80.3,88.1,74.3,80.7,74.3z" fill="#EBA15B"/></g><g><path d="M33.9,94v24.2c8.9,5,19.2,7.8,30.1,7.8s21.2-2.8,30.1-7.8V94H33.9z" fill="#E7E8E3"/></g><g opacity="0.1"><g><path d="M80.7,74.3c-1.5,0-2.7-1.2-2.7-2.7H67.5c0,1.5,1.2,2.7,2.7,2.7c7.4,0,13.4,6,13.4,13.4v35.2     c3.7-1.2,7.2-2.8,10.5-4.6V87.7C94.1,80.3,88.1,74.3,80.7,74.3z" fill="#04080A"/></g></g><g><path d="M94.1,93H33.9c-0.6,0-1,0.4-1,1v23.6c0.7,0.4,1.3,0.8,2,1.1V95h58.2v23.7c0.7-0.4,1.3-0.7,2-1.1V94    C95.1,93.5,94.6,93,94.1,93z" fill="#2D2E2D"/></g><g><path d="M80.7,73.3c-0.9,0-1.7-0.8-1.7-1.7c0-0.6-0.4-1-1-1H50c-0.6,0-1,0.4-1,1c0,0.9-0.8,1.7-1.7,1.7    c-7.9,0-14.4,6.4-14.4,14.4v30c0.7,0.4,1.3,0.8,2,1.1V87.7c0-6.8,5.5-12.4,12.4-12.4c1.7,0,3.1-1.1,3.5-2.7h26.4    c0.4,1.5,1.9,2.7,3.5,2.7c6.8,0,12.4,5.5,12.4,12.4v31.1c0.7-0.4,1.3-0.7,2-1.1v-30C95.1,79.7,88.6,73.3,80.7,73.3z" fill="#2D2E2D"/></g><g><g opacity="0.1"><path d="M64.4,31.5h-0.7c-0.7,0-1.4,0.3-1.9,0.8c0.4,0.4,0.7,0.9,0.8,1.5l3.7,24.5h4.5L67,33.8     C66.8,32.5,65.7,31.5,64.4,31.5z" fill="#04080A"/></g><g><path d="M77.7,58.2h-2.5h-4.5h-8.9h-4.5h-2.5h-4.5c-1.7,0-3,1.3-3,3v7.4c0,1.7,1.3,3,3,3h4.5h22.9     c1.7,0,3-1.3,3-3v-7.4C80.7,59.6,79.4,58.2,77.7,58.2z" fill="#65C1C2"/></g><g opacity="0.1"><g><path d="M77.7,58.2h-2.5h-2c1.7,0,3,1.3,3,3v7.4c0,1.7-1.3,3-3,3h4.5c1.7,0,3-1.3,3-3v-7.4      C80.7,59.6,79.4,58.2,77.7,58.2z" fill="#04080A"/></g></g></g><g><path d="M77.7,57.2H50.3c-2.2,0-4,1.8-4,4v7.4c0,2.2,1.8,4,4,4h27.4c2.2,0,4-1.8,4-4v-7.4    C81.7,59,79.9,57.2,77.7,57.2z M79.7,68.6c0,1.1-0.9,2-2,2H50.3c-1.1,0-2-0.9-2-2v-7.4c0-1.1,0.9-2,2-2h27.4c1.1,0,2,0.9,2,2V68.6    z" fill="#2D2E2D"/></g><g><path d="M50.6,64.7c-0.6,0-1,0.4-1,1v5.7c0,0.6,0.4,1,1,1s1-0.4,1-1v-5.7C51.6,65.2,51.2,64.7,50.6,64.7z" fill="#2D2E2D"/></g><g><path d="M57.3,64.7c-0.6,0-1,0.4-1,1v5.9c0,0.6,0.4,1,1,1s1-0.4,1-1v-5.9C58.3,65.2,57.9,64.7,57.3,64.7z" fill="#2D2E2D"/></g><g><path d="M64,64.7c-0.6,0-1,0.4-1,1v5.9c0,0.6,0.4,1,1,1s1-0.4,1-1v-5.9C65,65.2,64.6,64.7,64,64.7z" fill="#2D2E2D"/></g><g><path d="M70.7,64.7c-0.6,0-1,0.4-1,1v5.9c0,0.6,0.4,1,1,1s1-0.4,1-1v-5.9C71.7,65.2,71.2,64.7,70.7,64.7z" fill="#2D2E2D"/></g><g><path d="M77.4,64.7c-0.6,0-1,0.4-1,1v5.9c0,0.6,0.4,1,1,1s1-0.4,1-1v-5.9C78.4,65.2,77.9,64.7,77.4,64.7z" fill="#2D2E2D"/></g><g><path d="M64.4,30.5h-0.7c-1.8,0-3.4,1.3-3.6,3.1l-3.7,24.5c-0.1,0.5,0.3,1.1,0.8,1.1c0.6,0.1,1.1-0.3,1.1-0.8    L62,33.9c0.1-0.8,0.8-1.4,1.7-1.4h0.7c0.8,0,1.5,0.6,1.7,1.4l3.7,24.5c0.1,0.5,0.5,0.9,1,0.9c0,0,0.1,0,0.1,0    c0.5-0.1,0.9-0.6,0.8-1.1L68,33.6C67.7,31.8,66.2,30.5,64.4,30.5z" fill="#2D2E2D"/></g><g><path d="M64.4,30.5c-0.6,0-1,0.4-1,1s0.4,1,1,1c12.3,0,22.7,10,22.7,21.7c0,7.6-5.6,13.7-8,16    c-0.4,0.4-0.4,1,0,1.4c0.2,0.2,0.5,0.3,0.7,0.3c0.2,0,0.5-0.1,0.7-0.3c2.6-2.5,8.6-9.1,8.6-17.5C89.1,41.4,77.8,30.5,64.4,30.5z" fill="#2D2E2D"/></g><g><path d="M67.8,37.7h-7.5c-0.6,0-1,0.4-1,1s0.4,1,1,1h7.5c0.6,0,1-0.4,1-1S68.3,37.7,67.8,37.7z" fill="#2D2E2D"/></g></g></svg>