<?xml version="1.0" ?><!DOCTYPE svg  PUBLIC '-//W3C//DTD SVG 1.1//EN'  'http://www.w3.org/Graphics/SVG/1.1/DTD/svg11.dtd'><svg enable-background="new 0 0 128 128" id="Слой_1" version="1.1" viewBox="0 0 128 128" xml:space="preserve" xmlns="http://www.w3.org/2000/svg" xmlns:xlink="http://www.w3.org/1999/xlink"><g><circle cx="64" cy="64" fill="#CBE8E1" r="62"/><g><g><path d="M66.5,64.5C45.8,64.5,29,81.3,29,102c0,5.4,1.2,10.6,3.2,15.2c9.3,5.6,20.1,8.8,31.8,8.8     c14.5,0,27.9-5,38.5-13.4c1-3.4,1.5-6.9,1.5-10.6C104,81.3,87.2,64.5,66.5,64.5z" fill="#E3725D"/></g><g><circle cx="44" cy="64.5" fill="#F9E373" r="37.5"/></g><g><path d="M21.5,66c-7,0-13.5,1.9-19.1,5.2c3.1,27,23.5,48.6,49.9,53.7c4.2-6.1,6.7-13.4,6.7-21.4     C59,82.8,42.2,66,21.5,66z" fill="#65C1C2"/></g><g><path d="M21.5,66c-7,0-13.5,1.9-19.1,5.2c3.1,27,23.5,48.6,49.9,53.7c4.2-6.1,6.7-13.4,6.7-21.4     C59,82.8,42.2,66,21.5,66z" fill="#65C1C2"/></g><g opacity="0.5"><circle cx="44" cy="64.5" fill="#F9E373" r="37.5"/></g><g opacity="0.5"><path d="M66.5,64.5C45.8,64.5,29,81.3,29,102c0,5.4,1.2,10.6,3.2,15.2c9.3,5.6,20.1,8.8,31.8,8.8     c14.5,0,27.9-5,38.5-13.4c1-3.4,1.5-6.9,1.5-10.6C104,81.3,87.2,64.5,66.5,64.5z" fill="#E3725D"/></g><g><path d="M21.5,65c-7,0-13.5,1.9-19.2,5.1c0.1,0.7,0.2,1.4,0.3,2.2c5.5-3.4,12-5.3,18.9-5.3     C41.6,67,58,83.4,58,103.5c0,7.9-2.5,15.2-6.8,21.2c0.7,0.2,1.4,0.3,2.2,0.4c4.2-6.2,6.6-13.6,6.6-21.6C60,82.3,42.7,65,21.5,65z     " fill="#2D2E2D"/></g><g><path d="M44,26C22.8,26,5.5,43.3,5.5,64.5S22.8,103,44,103s38.5-17.3,38.5-38.5S65.2,26,44,26z M44,101     C23.9,101,7.5,84.6,7.5,64.5S23.9,28,44,28s36.5,16.4,36.5,36.5S64.1,101,44,101z" fill="#2D2E2D"/></g><g><path d="M66.5,63.5C45.3,63.5,28,80.8,28,102c0,5.1,1,9.9,2.8,14.3c1,0.6,2,1.2,3,1.8c-2.4-4.9-3.8-10.3-3.8-16.1     c0-20.1,16.4-36.5,36.5-36.5S103,81.9,103,102c0,4.1-0.7,8-1.9,11.7c0.9-0.7,1.8-1.4,2.7-2.2c0.8-3,1.2-6.2,1.2-9.5     C105,80.8,87.7,63.5,66.5,63.5z" fill="#2D2E2D"/></g></g></g></svg>