<?xml version="1.0" ?><!DOCTYPE svg  PUBLIC '-//W3C//DTD SVG 1.1//EN'  'http://www.w3.org/Graphics/SVG/1.1/DTD/svg11.dtd'><svg enable-background="new 0 0 128 128" id="Слой_1" version="1.1" viewBox="0 0 128 128" xml:space="preserve" xmlns="http://www.w3.org/2000/svg" xmlns:xlink="http://www.w3.org/1999/xlink"><circle cx="64" cy="64" fill="#F6F3E0" r="62"/><g><g><path d="M91.5,8.4L69.4,30.6c-2.9,2.9,19.3,23.3,19.9,22.6c0,0,13.5-13.5,25.2-25.2C108.6,19.8,100.7,13,91.5,8.4z    " fill="#A3CA55"/></g><g><g><polygon fill="#CCD1CD" points="50,54.6 53.6,84.2 105.7,32.1 89.1,15.5    "/></g><g><polygon fill="#FFFFFF" points="52.6,76.4 53.6,84.2 105.7,32.1 101.3,27.7    "/></g><g><path d="M89.9,14.8c-0.4-0.4-1-0.4-1.4,0L49.3,53.9c-0.2,0.2-0.3,0.5-0.3,0.8l3.5,29.5c0,0.2,0.1,0.4,0.3,0.6     c0.1,0.1,0.2,0.2,0.4,0.2c0.4,0.1,0.8,0,1-0.2l52.1-52.1c0.4-0.4,0.4-1,0-1.4L89.9,14.8z M54.3,82l-3.2-27l38.1-38.1l15.1,15.1     L54.3,82z" fill="#2D2E2D"/></g><g><path d="M66.8,36.8c-0.5,0.1-0.9,0.6-0.9,1.1l3.5,29.6c0,0.2,0.1,0.4,0.3,0.6c0.2,0.2,0.5,0.3,0.8,0.3     c0.5-0.1,0.9-0.6,0.9-1.1l-3.5-29.6C67.8,37.1,67.3,36.7,66.8,36.8z" fill="#2D2E2D"/></g><g><path d="M78.6,25c-0.5,0.1-0.9,0.6-0.9,1.1l3.5,29.6c0,0.2,0.1,0.4,0.3,0.6c0.2,0.2,0.5,0.3,0.8,0.3     c0.5-0.1,0.9-0.6,0.9-1.1l-3.5-29.6C79.6,25.3,79.1,24.9,78.6,25z" fill="#2D2E2D"/></g></g><g><path d="M82.6,48c-2.6,2.6-6.8,2.6-9.5,0s-2.6-6.8,0-9.5L99,12.8c-2.4-1.6-4.8-3.1-7.4-4.3L65.8,34.2    c-5.9,5.9-5.9,15.4,0,21.3v0c5.9,5.9,15.4,5.9,21.3,0L114.5,28c-1.6-2.3-3.4-4.5-5.4-6.5L82.6,48z" fill="#A3CA55"/></g><g><path d="M81.9,47.3c-2.2,2.2-5.8,2.2-8,0s-2.2-5.8,0-8l25.9-25.9c-0.6-0.4-1.1-0.8-1.7-1.2L72.5,37.9    c-3,3-3,7.9,0,10.9s7.9,3,10.9,0l26.5-26.5c-0.4-0.5-0.9-1-1.4-1.4L81.9,47.3z" fill="#2D2E2D"/><path d="M86.3,54.8c-5.5,5.5-14.4,5.5-19.9,0c-5.5-5.5-5.5-14.4,0-19.9l26-26c-0.6-0.3-1.2-0.6-1.9-0.9L65.1,33.5    c-6.3,6.3-6.3,16.4,0,22.7s16.4,6.3,22.7,0l27.3-27.3c-0.4-0.6-0.8-1.1-1.2-1.7L86.3,54.8z" fill="#2D2E2D"/></g><g opacity="0.2"><path d="M87.4,33.8c2.6,2.6,6.8,2.6,9.5,0l12.3-12.3c-3.1-3.3-6.5-6.2-10.2-8.7L87.4,24.4    C84.8,27,84.8,31.2,87.4,33.8z" fill="#040506"/></g><g><path d="M93.2,16.2l-7.6,7.6c-3.3,3.3-3.3,8.6,0,11.8s8.6,3.3,11.8,0L105,28c2.4-2.4,3-5.8,1.9-8.8    c-2-1.9-4.1-3.7-6.4-5.4C97.9,13.5,95.2,14.2,93.2,16.2z" fill="#52544F"/></g><g><path d="M84.9,23.1c-3.6,3.6-3.6,9.6,0,13.2c3.6,3.6,9.6,3.6,13.2,0l7.6-7.6c2.2-2.2,3.1-5.2,2.6-8.1    c-2.9-2.9-6-5.5-9.4-7.9c-2.4,0-4.7,0.9-6.5,2.7L84.9,23.1z M104.3,16.9c2.9,2.9,2.9,7.5,0,10.4l-7.6,7.6c-2.9,2.9-7.5,2.9-10.4,0    c-2.9-2.9-2.9-7.5,0-10.4l7.6-7.6C96.7,14.1,101.4,14.1,104.3,16.9z" fill="#2D2E2D"/></g></g></svg>