<?xml version="1.0" ?><!DOCTYPE svg  PUBLIC '-//W3C//DTD SVG 1.1//EN'  'http://www.w3.org/Graphics/SVG/1.1/DTD/svg11.dtd'><svg enable-background="new 0 0 128 128" id="Слой_1" version="1.1" viewBox="0 0 128 128" xml:space="preserve" xmlns="http://www.w3.org/2000/svg" xmlns:xlink="http://www.w3.org/1999/xlink"><g><circle cx="66" cy="64" fill="#F6F3E0" r="62"/><g><g opacity="0.5"><path d="M34.4,47.3c0,2.1,0.9,4.1,2.5,5.5l4.8,4.4c0.6,0.6,1,1.4,1,2.2v6.2c0,1.7,1.3,3,3,3s3-1.3,3-3v-6.2     c0-0.8,0.4-1.7,1-2.2l4.8-4.4c1.6-1.4,2.5-3.4,2.5-5.5l0-2.7v-42c-7.8,1.2-15.5,3.8-22.5,8l0,34V47.3z" fill="#94D2D5"/></g><g><g opacity="0.5"><path d="M49.4,47.3c0,2.1-0.9,4.1-2.5,5.5l-4.8,4.4c-0.1,0.1-0.2,0.2-0.2,0.3c0.5,0.5,0.7,1.2,0.8,2v6.2      c0,1.7,1.3,3,3,3s3-1.3,3-3v-6.2c0-0.8,0.4-1.7,1-2.2l4.8-4.4c1.6-1.4,2.5-3.4,2.5-5.5v-2.7v-42c-2.5,0.4-5,0.9-7.5,1.6l0,40.4      L49.4,47.3z" fill="#94D2D5"/></g></g><g opacity="0.1"><g opacity="0.5"><path d="M49.4,47.3c0,2.1-0.9,4.1-2.5,5.5l-4.8,4.4c-0.1,0.1-0.2,0.2-0.2,0.3c0.5,0.5,0.7,1.2,0.8,2v6.2      c0,1.7,1.3,3,3,3s3-1.3,3-3v-6.2c0-0.8,0.4-1.7,1-2.2l4.8-4.4c1.6-1.4,2.5-3.4,2.5-5.5v-2.7v-42c-2.5,0.4-5,0.9-7.5,1.6l0,40.4      L49.4,47.3z" fill="#030505"/></g></g><g><path d="M36.2,53.6L41,58c0.4,0.4,0.7,0.9,0.7,1.5v6.2c0,2.2,1.8,4,4,4c1.1,0,2.1-0.4,2.8-1.2     c0.8-0.8,1.2-1.8,1.2-2.8v-6.2c0-0.5,0.2-1,0.6-1.5c0,0,0,0,0,0l4.8-4.4c1.8-1.6,2.8-3.9,2.8-6.3V2.5c-0.7,0.1-1.3,0.2-2,0.3     v44.5c0,1.8-0.8,3.6-2.1,4.8L49,56.5l-0.1,0.1c-0.8,0.8-1.2,1.8-1.2,2.8v6.2c0,1.1-0.9,2-2,2c-0.5,0-1-0.2-1.4-0.6     c-0.4-0.4-0.6-0.9-0.6-1.4v-6.2c0-1.1-0.5-2.2-1.3-3l-4.8-4.4c-1.4-1.2-2.1-3-2.1-4.8l0-37.2c-0.7,0.4-1.3,0.8-2,1.2l0,36.1     C33.4,49.7,34.4,52,36.2,53.6z" fill="#2D2E2D"/></g></g><g><g opacity="0.5"><path d="M87.2,41.8C81,41.8,76,46.8,76,53v72.1c7.9-1.3,15.5-4.1,22.5-8.4V53C98.5,46.8,93.4,41.8,87.2,41.8z" fill="#94D2D5"/></g><g><g opacity="0.5"><path d="M87.2,41.8c-1.3,0-2.6,0.2-3.8,0.7C87.8,44,91,48.1,91,53v67.7c2.6-1.1,5.1-2.4,7.5-3.9V53      C98.5,46.8,93.4,41.8,87.2,41.8z" fill="#94D2D5"/></g></g><g><path d="M87.2,41.8C81,41.8,76,46.8,76,53v21.8h22.5V53C98.5,46.8,93.4,41.8,87.2,41.8z" fill="#52544F"/></g><g opacity="0.1"><g opacity="0.5"><path d="M87.2,41.8c-1.3,0-2.6,0.2-3.8,0.7C87.8,44,91,48.1,91,53v67.7c2.6-1.1,5.1-2.4,7.5-3.9V53      C98.5,46.8,93.4,41.8,87.2,41.8z" fill="#030505"/></g></g><g opacity="0.1"><rect fill="#030505" height="19.5" width="22.5" x="76" y="71.8"/></g><g><path d="M95.9,44.4c-2.3-2.3-5.4-3.6-8.7-3.6s-6.3,1.3-8.7,3.6C76.2,46.7,75,49.8,75,53v72.3     c0.7-0.1,1.3-0.2,2-0.3V53c0-2.7,1.1-5.3,3-7.2c1.9-1.9,4.5-3,7.2-3c2.7,0,5.3,1.1,7.2,3c1.9,1.9,3,4.5,3,7.2v64.4     c0.7-0.4,1.3-0.8,2-1.2V53C99.5,49.8,98.2,46.7,95.9,44.4z" fill="#2D2E2D"/></g><g><path d="M103,74.8H71.5c-1.7,0-3,1.3-3,3v7.5c0,1.7,1.3,3,3,3H103c1.7,0,3-1.3,3-3v-7.5     C106,76.1,104.6,74.8,103,74.8z" fill="#52544F"/></g><g opacity="0.1"><g><path d="M103,74.8h-7.5c1.7,0,3,1.3,3,3v7.5c0,1.7-1.3,3-3,3l7.5,0c1.7,0,3-1.3,3-3v-7.5      C106,76.1,104.6,74.8,103,74.8z" fill="#030505"/></g></g><g><path d="M103,73.8H71.5c-2.1,0-4,1.9-4,4v7.5c0,2.2,1.8,4,4,4H103c1.1,0,2.1-0.4,2.8-1.2c0.8-0.8,1.2-1.8,1.2-2.8     v-7.5C107,75.6,105.2,73.8,103,73.8z M105,85.3c0,1.1-0.9,2-2,2H71.5c-1.1,0-2-0.9-2-2v-7.5c0-0.5,0.2-1,0.6-1.4     c0.4-0.4,0.9-0.6,1.4-0.6H103c1.1,0,2,0.9,2,2V85.3z" fill="#2D2E2D"/></g></g></g></svg>