<?xml version="1.0" ?><!DOCTYPE svg  PUBLIC '-//W3C//DTD SVG 1.1//EN'  'http://www.w3.org/Graphics/SVG/1.1/DTD/svg11.dtd'><svg enable-background="new 0 0 128 128" id="Слой_1" version="1.1" viewBox="0 0 128 128" xml:space="preserve" xmlns="http://www.w3.org/2000/svg" xmlns:xlink="http://www.w3.org/1999/xlink"><g><circle cx="64" cy="64" fill="#F6F3E0" r="62"/><g><g><polygon fill="#A3CA55" points="40.1,55.9 49.6,55.9 49.6,50.5 40.1,46.4    "/></g><g opacity="0.1"><g><polygon fill="#040606" points="40.1,50.9 49.6,55 49.6,50.5 40.1,46.4     "/></g></g><g><path d="M50,49.6l-9.5-4.1c-0.3-0.1-0.7-0.1-0.9,0.1c-0.3,0.2-0.5,0.5-0.5,0.8v9.5c0,0.5,0.5,1,1,1l9.5,0     c0.6,0,1-0.4,1-1l0-5.4c0-0.3-0.1-0.5-0.3-0.7C50.2,49.7,50.1,49.7,50,49.6z M48.6,54.9l-7.5,0v-7l7.5,3.2L48.6,54.9z" fill="#2D2E2D"/></g><g><path d="M52.7,65.1c-0.7-1-1.1-2.2-1.2-3.5l-0.7-4.3c-0.1-0.8-0.7-1.4-1.5-1.4h-8.8c-0.8,0-1.4,0.6-1.5,1.4     l-0.7,4.3c-0.1,1.2-0.5,2.4-1.2,3.5l-0.7,1c-0.8,1.2-1.3,2.7-1.3,4.2v2.2l19.5,0v-2.2c0-1.5-0.4-2.9-1.3-4.2L52.7,65.1z" fill="#CCD1CD"/></g><g><path d="M53.5,64.5c-0.6-0.9-1-1.9-1.1-3l-0.7-4.4c0-0.5-0.3-1.1-0.7-1.5c-0.5-0.5-1.1-0.7-1.8-0.7h-8.8     c-1.3,0-2.4,1-2.5,2.3l-0.7,4.3c-0.1,1.1-0.5,2.2-1.1,3.1l-0.7,1c-0.9,1.4-1.4,3-1.4,4.7l0,2.2c0,0.5,0.5,1,1,1l19.5,0     c0.6,0,1-0.4,1-1v-2.2c0-1.7-0.5-3.3-1.4-4.7L53.5,64.5z M53.6,71.5l-17.5,0l0-1.2c0-1.3,0.4-2.5,1.1-3.6l0.7-1     c0.8-1.2,1.3-2.5,1.4-3.9l0.7-4.3c0-0.3,0.2-0.5,0.5-0.5l8.8,0c0.1,0,0.3,0.1,0.4,0.1c0.1,0.1,0.1,0.2,0.1,0.3l0.7,4.4     c0.1,1.3,0.6,2.7,1.4,3.9l0.7,1c0.7,1.1,1.1,2.3,1.1,3.6V71.5z" fill="#2D2E2D"/></g><g opacity="0.1"><path d="M52.7,65.1c-0.7-1-1.1-2.2-1.2-3.5l-0.7-4.3c-0.1-0.8-0.7-1.4-1.5-1.4H48l2.1,16.6l4.5,0v-2.2     c0-1.5-0.4-2.9-1.3-4.2L52.7,65.1z" fill="#040606"/></g><g><path d="M33.6,72.5V118c7,4,14.7,6.4,22.5,7.4v-53L33.6,72.5z" fill="#A3CA55"/></g><g><path d="M56.8,71.8c-0.2-0.2-0.4-0.3-0.7-0.3l-22.5,0c-0.6,0-1,0.4-1,1l0,45c0.7,0.4,1.3,0.8,2,1.1l0-45.1l20.5,0     l0,51.9c0.7,0.1,1.3,0.2,2,0.2l0-53.1C57.1,72.2,57,72,56.8,71.8z" fill="#2D2E2D"/></g><g opacity="0.1"><g><path d="M50.1,72.5v51.9c2,0.5,4,0.8,6,1.1v-53L50.1,72.5z" fill="#040606"/></g></g></g><g><g><path d="M87.3,65c6.2,0,11.2-5,11.2-11.2V12.5C91.6,7.8,83.9,4.7,76,3.2v50.6C76,60,81.1,65,87.3,65z" fill="#E3725D"/></g><g><path d="M78.6,62.4c2.3,2.3,5.4,3.6,8.7,3.6c3.3,0,6.3-1.3,8.7-3.6s3.6-5.4,3.6-8.7V13.2c-0.7-0.5-1.3-0.9-2-1.4     v41.9c0,2.7-1.1,5.3-3,7.2c-1.9,1.9-4.5,3-7.2,3S82,62.9,80,61c-1.9-1.9-3-4.5-3-7.2V3.4c-0.7-0.1-1.3-0.3-2-0.4v50.8     C75,57,76.3,60.1,78.6,62.4z" fill="#2D2E2D"/></g><g opacity="0.1"><g><path d="M84.3,64.6c1,0.3,2,0.4,3,0.4c6.2,0,11.2-5,11.2-11.2V12.5c-1.9-1.3-3.9-2.5-6-3.6v44.8      C92.5,58.9,89,63.3,84.3,64.6z" fill="#040606"/></g></g></g></g></svg>